<?xml version="1.0" encoding="utf-8"?>
<!-- Generator: Adobe Illustrator 15.1.0, SVG Export Plug-In . SVG Version: 6.00 Build 0)  -->
<!DOCTYPE svg PUBLIC "-//W3C//DTD SVG 1.1//EN" "http://www.w3.org/Graphics/SVG/1.1/DTD/svg11.dtd">
<svg version="1.1" id="Layer_1" xmlns="http://www.w3.org/2000/svg" xmlns:xlink="http://www.w3.org/1999/xlink" x="0px" y="0px"
	 width="335.212px" height="318.31px" viewBox="0 0 335.212 318.31" enable-background="new 0 0 335.212 318.31"
	 xml:space="preserve">
<g>
	<rect x="36.197" y="11.299" fill="#585858" width="194" height="153"/>
	<rect x="36.409" y="278.3" fill="#585858" width="193.788" height="28"/>
	<rect x="133.075" y="47.299" fill="#585858" width="97.122" height="147.459"/>
	
		<ellipse transform="matrix(1 0.006 -0.006 1 1.1203 -0.7968)" fill="#585858" cx="133.075" cy="185.936" rx="125.878" ry="120.364"/>
	<path fill="#585858" d="M232.534,62.094"/>
	<path fill="#585858" d="M231.365,38.829c-50.717,0-91.831,34.945-91.831,78.053s41.114,78.053,91.831,78.053
		c50.718,0,91.832-34.945,91.832-78.053C323.197,47.273,310.759,38.829,231.365,38.829z M298.029,130.687l-0.007,0.014
		c-1.307,4.072-3.188,7.955-5.553,11.602l-0.035,0.074l-0.053,0.065c-1.951,2.99-4.237,5.812-6.812,8.442l-0.088,0.108l-0.09,0.075
		c-2.846,2.881-6.036,5.528-9.533,7.892l-0.035,0.029l-0.012,0.004c-11.731,7.913-26.815,12.677-43.277,12.677
		c-37.369,0-67.663-24.529-67.663-54.787s30.294-54.788,67.663-54.788c24.504,0,40.547-1.733,50.83,1.772h0.001l0.001,0
		c8.61,2.935,13.184,9.549,15.299,23.932V87.8v0.004c0.467,3.172,0.815,6.715,1.061,10.686v0.005v0.007
		c0.328,5.332,0.472,11.423,0.472,18.381c0,4.766-0.755,9.388-2.167,13.796L298.029,130.687z"/>
</g>
</svg>
