<?xml version="1.0" encoding="utf-8"?>
<!-- Generator: Adobe Illustrator 15.1.0, SVG Export Plug-In . SVG Version: 6.00 Build 0)  -->
<!DOCTYPE svg PUBLIC "-//W3C//DTD SVG 1.1//EN" "http://www.w3.org/Graphics/SVG/1.1/DTD/svg11.dtd">
<svg version="1.1" id="Layer_1" xmlns="http://www.w3.org/2000/svg" xmlns:xlink="http://www.w3.org/1999/xlink" x="0px" y="0px"
	 width="362px" height="362px" viewBox="0 0 362 362" enable-background="new 0 0 362 362" xml:space="preserve">
<rect x="53.704" y="-378.208" width="194" height="153"/>
<rect x="53.916" y="-111.207" width="193.788" height="28"/>
<rect x="150.582" y="-342.208" width="97.122" height="147.459"/>
<ellipse transform="matrix(1 0.006 -0.006 1 -1.2213 -0.909)" cx="150.582" cy="-203.571" rx="125.878" ry="120.364"/>
<rect x="435.386" y="-267.381" transform="matrix(-0.5289 0.8487 -0.8487 -0.5289 675.3254 -869.1289)" width="287" height="40.5"/>
<polygon points="502.988,-125.895 520.273,-115.123 503.31,-107.156 486.346,-99.189 486.024,-117.928 485.702,-136.668 "/>
<line fill="none" stroke="#000000" stroke-width="6" stroke-miterlimit="10" x1="404.015" y1="-109.621" x2="468.515" y2="-109.621"/>
<line fill="none" stroke="#000000" stroke-width="6" stroke-miterlimit="10" x1="545.515" y1="-109.621" x2="671.97" y2="-109.621"/>
<line fill="none" stroke="#000000" stroke-width="6" stroke-miterlimit="10" x1="404.015" y1="-86.621" x2="671.97" y2="-86.621"/>
<line fill="none" stroke="#000000" stroke-width="6" stroke-miterlimit="10" x1="404.015" y1="-132.621" x2="468.515" y2="-132.621"/>
<line fill="none" stroke="#000000" stroke-width="6" stroke-miterlimit="10" x1="545.515" y1="-132.621" x2="671" y2="-132.621"/>
<rect x="755.068" y="-327.614" width="117.247" height="181.17"/>
<polygon points="920.568,-236.46 920.568,-145.531 854.289,-190.996 788.01,-236.46 854.289,-281.925 920.568,-327.388 "/>
<g>
	<path fill="#6A95AD" d="M546.491-547.418l-11.073-11.073c-1.455-1.456-3.816-1.456-5.272,0L503.255-531.6
		c-1.456,1.456-1.456,3.817,0,5.273l2.636,2.636l4.746-4.746L508-531.073l22.673-22.673l11.073,11.073L519.072-520l-2.108-2.109
		l-4.746,4.745l2.109,2.109c1.456,1.456,3.817,1.456,5.272,0l26.892-26.891C547.947-543.602,547.947-545.962,546.491-547.418z"/>
	<path fill="#6A95AD" d="M510.109-516.309l-4.746,4.745l2.637,2.637l-22.673,22.672l-11.073-11.073L496.928-520l2.108,2.109
		l4.746-4.745l-2.109-2.109c-1.456-1.457-3.817-1.457-5.272,0l-26.892,26.891c-1.456,1.457-1.456,3.816,0,5.273l11.073,11.073
		c1.455,1.456,3.816,1.456,5.272,0l26.891-26.891c1.456-1.457,1.456-3.817,0-5.273L510.109-516.309z"/>
	<path fill="#6A95AD" d="M500.064-512.599l0.309,0.308c0.851,0.851,2.23,0.851,3.082,0l12.326-12.326
		c0.852-0.852,0.852-2.231,0-3.082l-0.309-0.309c-0.851-0.85-2.23-0.85-3.082,0l-12.326,12.327
		C499.213-514.83,499.213-513.45,500.064-512.599z"/>
</g>
<path fill="none" stroke="#000000" stroke-width="12" stroke-miterlimit="10" d="M941.151-194.33
	c24.476-24.476,23.233-65.329-2.777-91.34"/>
<path fill="none" stroke="#000000" stroke-width="12" stroke-miterlimit="10" d="M960.137-175.345
	c33.327-33.327,30.757-89.835-5.748-126.34"/>
<path fill="none" stroke="#000000" stroke-width="12" stroke-miterlimit="10" d="M977.678-157.804
	c42.425-42.425,39.37-114.14-6.83-160.34"/>
<line fill="none" stroke="#000000" stroke-width="4" stroke-miterlimit="10" x1="795" y1="-593" x2="795" y2="-491"/>
<line fill="none" stroke="#000000" stroke-width="4" stroke-miterlimit="10" x1="895" y1="-492" x2="793" y2="-492"/>
<line fill="none" stroke="#000000" stroke-width="4" stroke-miterlimit="10" x1="895" y1="-592" x2="793" y2="-592"/>
<line fill="none" stroke="#000000" stroke-width="4" stroke-miterlimit="10" x1="893" y1="-592" x2="893" y2="-490"/>
<circle cx="843.667" cy="-542.333" r="33"/>
<path fill="#FFFFFF" d="M872.668-542.333c0,16.017-12.982,29-29.002,29c-16.017,0-28.999-12.984-28.999-29s12.982-29,28.999-29
	C859.686-571.333,872.668-558.349,872.668-542.333z"/>
<polygon points="862.389,-542.893 847.91,-534.384 833.432,-525.875 833.359,-542.768 833.285,-559.659 847.837,-551.276 "/>
<path d="M250.041-327.413"/>
<path d="M248.872-350.678c-50.717,0-91.831,34.945-91.831,78.053s41.114,78.053,91.831,78.053c50.718,0,91.832-34.945,91.832-78.053
	C340.704-342.233,328.266-350.678,248.872-350.678z M315.536-258.82l-0.007,0.014c-1.307,4.072-3.188,7.955-5.552,11.602
	l-0.036,0.074l-0.053,0.065c-1.952,2.99-4.237,5.812-6.813,8.442l-0.087,0.108l-0.09,0.075c-2.846,2.881-6.036,5.528-9.533,7.892
	l-0.036,0.029l-0.012,0.004c-11.731,7.913-26.815,12.677-43.277,12.677c-37.369,0-67.663-24.529-67.663-54.787
	s30.294-54.788,67.663-54.788c24.504,0,40.546-1.733,50.831,1.772h0l0,0c8.611,2.935,13.184,9.549,15.299,23.932l0,0.001l0,0.004
	c0.466,3.172,0.815,6.715,1.06,10.686l0,0.005v0.007c0.328,5.332,0.472,11.423,0.472,18.381c0,4.766-0.754,9.388-2.167,13.796
	L315.536-258.82z"/>
<path fill="#585858" stroke="#585858" stroke-width="4" stroke-miterlimit="10" d="M110.114,359.309
	c21.513-0.818,43.005-1.213,64.439,0H347c-2.889-6.151-5.079-12.408-4.107-19.774c5.698-43.256-35.304-49.977-62.203-59.953
	c0.2,0.034,0.437,0.031,0.672-0.011c0.602-0.105,1.195-0.475,1.136-1.247c-0.026-0.332-3.478-1.666-3.902-1.881
	c-2.544-1.28-5.047-2.659-7.538-4.072c-3.841-2.18-9.064-4.686-13.668-4.588c-0.683,0.123-1.375,0.191-2.065,0.234
	c3.184-2.228,6.455-0.975,9.727,0.278c8.724,3.763,17.447,6.269,25.08,10.028c3.271,2.509,7.632,3.761,11.995,6.269
	c4.361,1.253,9.813,0,10.903-6.269c0-2.507,0-3.76-1.09-6.266c-5.452-7.521-8.723-15.043-11.994-23.817
	c-1.99-9.145-3.09-19.311-9.772-23.723c0.104,0.69-1.102,1.05-2.083-1.13c0.774,0.081,1.288,0.275,1.618,0.509
	c7.028,2.237,16.073,5.432,22.991,2.893c4.621-1.696,2.753-11.696,2.36-16.028c-0.606-6.697-1.958-13.286-3.834-19.655
	c-3.726-12.646-10.456-22.605-17.079-33.38c-10.356-16.847-16.998-36.554-24.772-55.06c-14.279-33.978-36.074-74.362-73.382-73.839
	c-23.687,0.334-43.194,17.258-60.182,34.75c-4.057,4.177-7.561,9.538-10.271,14.956c-2.832,5.657-6.065,11.113-8.38,17.075
	c-4.65,11.978-6.578,24.94-9.06,37.654c-1.247,6.387-2.463,13.077-4.647,19.146c-1.006,2.798-2.705,5.185-3.688,7.983
	c-1.031,2.93-1.344,6.269-1.996,9.346c-2.415,11.391-4.702,26.674-13.563,33.563c-8.636,6.712-12.929,14.517-8.868,26.431
	c0.921,2.699,2.105,5.273,3.378,7.771c1.088,2.135,3.14,4.597,3.408,7.074c0.679,6.272-6.785,6.802-10.28,8.504
	c-5.176,2.517-8.881,7.051-12.688,11.742c-3.732,4.597-7.664,8.711-11.624,13.011c-3.795,4.12-5.413,9.023-6.33,14.812
	c-0.912,5.752-2.798,10.798-5.504,15.746c-9.499,17.367-24.234,30.993-29.428,50.917H110.114z"/>
<path fill="#585858" stroke="#585858" stroke-width="4" stroke-miterlimit="10" d="M293.565,215.646
	c0.604-0.096,1.201-0.234,1.778-0.447c-1.253-0.049-2.482,0.264-3.672,0.635C292.285,215.715,292.919,215.658,293.565,215.646z"/>
<rect x="1037" y="54" fill="#585858" stroke="#585858" stroke-width="4" stroke-miterlimit="10" width="145" height="215"/>
<g>
	<g>
		<g enable-background="new    ">
			<g enable-background="new    ">
				<defs>
					<path id="SVGID_1_" enable-background="new    " d="M820.468-9.117L796.727,6.816c-0.375-1.583-1.881-2.704-3.348-2.498
						l23.741-15.934C818.586-11.821,820.093-10.7,820.468-9.117z"/>
				</defs>
				<clipPath id="SVGID_2_">
					<use xlink:href="#SVGID_1_"  overflow="visible"/>
				</clipPath>
				<g clip-path="url(#SVGID_2_)" enable-background="new    ">
					<path fill="#2E2E2E" d="M820.468-9.117L796.727,6.816c-0.375-1.583-1.881-2.704-3.348-2.498l23.741-15.934
						C818.586-11.821,820.093-10.7,820.468-9.117"/>
				</g>
			</g>
			<g>
				<polygon fill="#2D2D2D" points="883.856,258.546 860.115,274.479 796.727,6.816 820.468,-9.117 				"/>
			</g>
			<g enable-background="new    ">
				<defs>
					<path id="SVGID_3_" enable-background="new    " d="M882.851,261.412c-7.913,5.312-15.827,10.623-23.74,15.935
						c0.852-0.572,1.284-1.687,1.005-2.867l23.741-15.934C884.136,259.726,883.702,260.841,882.851,261.412z"/>
				</defs>
				<clipPath id="SVGID_4_">
					<use xlink:href="#SVGID_3_"  overflow="visible"/>
				</clipPath>
				<g clip-path="url(#SVGID_4_)" enable-background="new    ">
					<path fill="#2E2E2E" d="M882.851,261.412l-23.74,15.935c0.852-0.572,1.284-1.687,1.005-2.867l23.741-15.934
						C884.136,259.726,883.702,260.841,882.851,261.412"/>
				</g>
			</g>
			<g enable-background="new    ">
				<defs>
					<path id="SVGID_5_" enable-background="new    " d="M858.126,277.72c7.914-5.311,15.828-10.622,23.741-15.935
						c0.368-0.051,0.7-0.182,0.985-0.373l-23.741,15.934C858.826,277.537,858.494,277.668,858.126,277.72z"/>
				</defs>
				<clipPath id="SVGID_6_">
					<use xlink:href="#SVGID_5_"  overflow="visible"/>
				</clipPath>
				<g clip-path="url(#SVGID_6_)" enable-background="new    ">
					<path fill="#2E2E2E" d="M882.852,261.412l-23.741,15.935c-0.285,0.19-0.616,0.321-0.984,0.373l23.741-15.935
						C882.234,261.734,882.566,261.604,882.852,261.412"/>
				</g>
			</g>
			<g enable-background="new    ">
				<defs>
					<path id="SVGID_7_" enable-background="new    " d="M885.075,264.732c-7.914,5.312-15.827,10.623-23.741,15.935
						c-0.666,0.446-1.442,0.751-2.304,0.872l23.741-15.934C883.633,265.484,884.409,265.18,885.075,264.732z"/>
				</defs>
				<clipPath id="SVGID_8_">
					<use xlink:href="#SVGID_7_"  overflow="visible"/>
				</clipPath>
				<g clip-path="url(#SVGID_8_)" enable-background="new    ">
					<path fill="#2E2E2E" d="M885.075,264.732l-23.741,15.935c-0.666,0.446-1.442,0.751-2.304,0.872l23.741-15.934
						C883.633,265.484,884.409,265.18,885.075,264.732"/>
				</g>
			</g>
			<g>
				<polygon fill="#2C2C2C" points="817.12,-11.615 793.379,4.318 609.139,30.212 632.88,14.277 				"/>
			</g>
			<g enable-background="new    ">
				<defs>
					<path id="SVGID_9_" enable-background="new    " d="M608.149,30.587c7.914-5.312,15.828-10.623,23.741-15.934
						c0.286-0.192,0.62-0.323,0.99-0.376l-23.741,15.935C608.769,30.264,608.436,30.395,608.149,30.587z"/>
				</defs>
				<clipPath id="SVGID_10_">
					<use xlink:href="#SVGID_9_"  overflow="visible"/>
				</clipPath>
				<g clip-path="url(#SVGID_10_)" enable-background="new    ">
					<path fill="#2E2E2E" d="M632.88,14.277l-23.741,15.935c-0.37,0.052-0.704,0.183-0.99,0.375l23.741-15.934
						C632.176,14.461,632.51,14.33,632.88,14.277"/>
				</g>
			</g>
			<g enable-background="new    ">
				<defs>
					<path id="SVGID_11_" enable-background="new    " d="M607.145,33.461c-0.281-1.186,0.151-2.301,1.004-2.874l23.741-15.934
						c-0.853,0.572-1.284,1.688-1.003,2.873C623.763,22.307,614.267,28.681,607.145,33.461z"/>
				</defs>
				<clipPath id="SVGID_12_">
					<use xlink:href="#SVGID_11_"  overflow="visible"/>
				</clipPath>
				<g clip-path="url(#SVGID_12_)" enable-background="new    ">
					<path fill="#2E2E2E" d="M630.886,17.526l-23.741,15.935c-0.281-1.186,0.151-2.302,1.004-2.875l23.741-15.934
						C631.037,15.226,630.604,16.341,630.886,17.526"/>
				</g>
			</g>
			<g enable-background="new    ">
				<defs>
					<path id="SVGID_13_" enable-background="new    " d="M605.925,27.267c7.914-5.312,15.827-10.623,23.741-15.935
						c-1.987,1.334-2.991,3.932-2.337,6.694l-23.741,15.935C602.933,31.197,603.937,28.601,605.925,27.267z"/>
				</defs>
				<clipPath id="SVGID_14_">
					<use xlink:href="#SVGID_13_"  overflow="visible"/>
				</clipPath>
				<g clip-path="url(#SVGID_14_)" enable-background="new    ">
					<path fill="#2E2E2E" d="M627.329,18.026l-23.741,15.935c-0.654-2.764,0.35-5.36,2.337-6.694l23.741-15.935
						C627.678,12.666,626.674,15.264,627.329,18.026"/>
				</g>
			</g>
			<g>
				<polygon fill="#2C2C2C" points="881.867,261.785 858.126,277.72 673.887,303.612 697.628,287.679 				"/>
			</g>
			<g>
				<polygon fill="#2C2C2C" points="882.771,265.605 859.03,281.539 674.791,307.433 698.532,291.499 				"/>
			</g>
			<g>
				<polygon fill="#2D2D2D" points="694.273,285.189 670.533,301.124 607.145,33.461 630.886,17.526 				"/>
			</g>
			<g>
				<path fill="#565656" d="M817.12-11.616c1.466-0.206,2.973,0.916,3.348,2.499l63.389,267.663
					c0.373,1.575-0.522,3.034-1.989,3.239l-184.239,25.894c-1.474,0.207-2.981-0.914-3.354-2.489L630.886,17.526
					c-0.375-1.583,0.521-3.042,1.995-3.249L817.12-11.616z"/>
			</g>
			<g enable-background="new    ">
				<defs>
					<path id="SVGID_15_" enable-background="new    " d="M697.628,287.679l-23.741,15.934c-1.474,0.208-2.981-0.914-3.354-2.488
						l23.74-15.935C694.646,286.765,696.154,287.886,697.628,287.679z"/>
				</defs>
				<clipPath id="SVGID_16_">
					<use xlink:href="#SVGID_15_"  overflow="visible"/>
				</clipPath>
				<g clip-path="url(#SVGID_16_)" enable-background="new    ">
					<path fill="#2E2E2E" d="M697.628,287.679l-23.741,15.934c-1.474,0.208-2.981-0.914-3.354-2.488l23.74-15.935
						C694.646,286.765,696.154,287.886,697.628,287.679"/>
				</g>
			</g>
			<g>
				<polygon fill="#2D2D2D" points="690.717,285.689 666.976,301.623 603.587,33.961 627.329,18.026 				"/>
			</g>
			<g enable-background="new    ">
				<defs>
					<path id="SVGID_17_" enable-background="new    " d="M698.532,291.499l-23.741,15.934c-3.437,0.483-6.943-2.126-7.815-5.81
						l23.741-15.934C691.589,289.372,695.096,291.981,698.532,291.499z"/>
				</defs>
				<clipPath id="SVGID_18_">
					<use xlink:href="#SVGID_17_"  overflow="visible"/>
				</clipPath>
				<g clip-path="url(#SVGID_18_)" enable-background="new    ">
					<path fill="#2E2E2E" d="M698.532,291.499l-23.741,15.934c-3.437,0.483-6.943-2.126-7.815-5.81l23.741-15.934
						C691.589,289.372,695.096,291.981,698.532,291.499"/>
				</g>
			</g>
			<g>
				<path fill="#565656" d="M816.215-15.436c3.429-0.482,6.936,2.128,7.81,5.818l63.388,267.663c0.873,3.683-1.212,7.078-4.641,7.56
					l-184.239,25.894c-3.437,0.482-6.943-2.127-7.815-5.81L627.329,18.026c-0.874-3.69,1.211-7.086,4.647-7.569L816.215-15.436z
					 M883.856,258.546L820.468-9.117c-0.375-1.583-1.882-2.704-3.348-2.498L632.88,14.277c-1.474,0.207-2.37,1.666-1.995,3.25
					l63.388,267.662c0.373,1.575,1.881,2.696,3.354,2.489l184.24-25.893C883.333,261.58,884.229,260.12,883.856,258.546"/>
			</g>
		</g>
	</g>
</g>
</svg>
