<?xml version="1.0" encoding="utf-8"?>
<!-- Generator: Adobe Illustrator 15.1.0, SVG Export Plug-In . SVG Version: 6.00 Build 0)  -->
<!DOCTYPE svg PUBLIC "-//W3C//DTD SVG 1.1//EN" "http://www.w3.org/Graphics/SVG/1.1/DTD/svg11.dtd">
<svg version="1.1" xmlns="http://www.w3.org/2000/svg" xmlns:xlink="http://www.w3.org/1999/xlink" x="0px" y="0px" width="400px"
	 height="300px" viewBox="0 0 400 300" enable-background="new 0 0 400 300" xml:space="preserve">
<g id="Layer_1" display="none">
	<g display="inline">
		<g>
			<g>
				<path fill-rule="evenodd" clip-rule="evenodd" fill="#594A42" d="M145.937,0c2.652,0,5.304,0,7.957,0
					c45.782,2.247,77.958,19.888,102.089,44.018c24.13,24.13,41.767,56.31,44.018,102.088c0,2.652,0,5.305,0,7.958
					c-1.986,45.702-20.096,77.075-43.51,101.58c-11.27,11.794-26.472,22.897-42.495,30.135
					c-16.695,7.543-35.756,13.28-58.239,14.222c-3.837,0-7.675,0-11.512,0c-22.411-0.847-41.381-6.654-57.9-14.222
					c-16.442-7.531-30.81-17.689-42.495-29.627C20.278,232.07,2.604,200.57,0,155.756c0-3.837,0-7.675,0-11.512
					c1.964-34.382,12.634-59.915,27.765-81.264c5.059-7.138,10.705-14.118,16.591-19.639C69.29,19.958,100.558,1.887,145.937,0z
					 M146.614,7.28c-22.84,0-41.681,6.237-57.731,13.544C64.685,31.84,45.167,49.838,31.32,70.429
					c-4.636,6.896-8.691,14.554-12.528,23.194c-7.131,16.061-12.479,36.728-11.682,59.763c1.554,44.935,19.911,75.956,43.51,99.21
					c11.819,11.646,26.054,21.29,42.833,28.612c16.445,7.176,36.835,12.4,59.763,11.682c21.819-0.685,41.48-5.878,57.731-13.544
					c23.952-11.299,43.627-28.533,57.562-49.605c9.382-14.186,17.209-30.42,21.332-50.112c2.069-9.883,3.591-21.278,3.048-32.675
					c-1.066-22.386-5.922-41.297-13.544-57.731c-7.485-16.137-17.542-29.812-29.797-41.648
					c-12.062-11.649-25.903-21.047-42.833-28.612c-15.529-6.938-37.425-12.745-59.763-11.682
					C146.84,7.285,146.727,7.28,146.614,7.28z"/>
				<path fill-rule="evenodd" clip-rule="evenodd" fill="#594A42" d="M148.307,38.262c1.242,0,2.483,0,3.724,0
					c4.656-11.151,16.497-21.064,32.676-16.93c12.236,3.127,21.549,14.54,19.808,30.812c0.671,1.021,2.121,1.265,3.048,2.032
					c1.401-0.395,2.572-1.786,3.894-2.54c18.998-10.841,39.61,3.737,40.802,21.501c0.582,8.686-2.345,14.478-6.265,19.47
					c0.646,1.16,1.184,2.428,2.031,3.386c9.56-1.279,16.878,1.681,22.348,6.434c5.161,4.484,9.235,11.229,9.312,20.146
					c0.114,13.292-7.85,21.62-17.945,25.733c0,1.242,0,2.483,0,3.725c11.201,4.826,20.273,15.883,17.1,31.151
					c-2.708,13.021-14.208,23.493-30.982,21.332c-1.066,0.739-1.26,2.352-2.201,3.217c6.656,6.845,8.034,20.757,3.387,29.797
					c-4.156,8.083-12.974,14.862-24.041,14.898c-7.761,0.025-13.129-2.811-17.607-6.434c-1.037,0.543-1.921,1.239-3.047,1.693
					c2.328,13.855-5.975,25.283-15.914,29.458c-8.586,3.606-18.494,2.178-25.057-1.862c-2.175-1.339-3.829-2.996-5.757-4.232
					c-3.144,0.572-7.548,0.919-11.512,0.508c-1.304-0.135-2.694-0.622-3.555-0.508c-1.56,0.206-2.898,2.399-4.232,3.386
					c-8.199,6.063-21.687,6.748-30.812,0.847c-7.886-5.101-13.575-14.035-12.021-27.427c-0.854-0.896-2.211-1.287-3.217-2.031
					c-1.654,0.828-2.467,1.807-3.725,2.539c-8.508,4.954-20.437,4.306-28.104-0.508c-7.234-4.542-12.834-12.958-12.867-22.855
					c-0.025-7.773,2.858-13.072,6.434-17.607c-0.738-1.068-1.291-2.32-2.032-3.386c-16.007,1.614-26.163-6.412-30.135-17.776
					c-5.485-15.69,4.151-30.312,16.253-34.537c0-1.242,0-2.483,0-3.725c-9.154-4.349-16.737-11.41-17.607-23.363
					C19.338,108.837,30.494,97,44.356,95.316c0.995-0.121,2.526-0.213,3.894-0.169c1.024,0.033,2.833,0.616,3.725,0.339
					c1.264-0.393,1.144-2.131,2.201-3.047c-3.678-5.204-6.714-11.334-6.095-19.978c0.75-10.469,7.609-18.397,15.576-22.178
					c9.015-4.279,22.4-2.789,28.951,3.725c1.108-0.698,2.381-1.23,3.386-2.032c-2.244-18.272,10.093-30.432,25.903-31.659
					c6.522-0.506,12.653,2.15,16.93,5.249C143.292,28.8,146.462,33.286,148.307,38.262z M140.35,45.034
					c-0.953-8.943-9.219-15.826-18.623-15.237c-10.221,0.64-17.594,9.533-16.592,19.808c0.367,3.757,1.939,5.632,3.725,8.804
					c9.226-4.036,19.417-7.106,31.49-8.296C140.211,48.454,140.535,46.771,140.35,45.034z M194.526,53.33
					c4.362-12.139-5.442-22.635-15.745-23.363c-11.435-0.809-19.434,8.207-18.623,20.146c11.989,1.329,22.172,4.464,31.489,8.465
					C192.569,56.418,193.84,55.24,194.526,53.33z M232.618,197.573c9.981-17.417,16.23-43.213,10.158-69.582
					c-5.089-22.1-17.237-39.554-32.844-51.976c-15.201-12.099-36.396-22.62-63.657-21.332
					c-25.849,1.221-44.444,11.095-59.424,24.041c-14.706,12.708-25.835,30.043-30.305,52.483
					c-5.315,26.683,1.576,50.966,11.512,67.551c10.469,17.473,24.667,30.067,44.018,38.77c-1.119-13.281,3.466-22.716,9.819-29.797
					c6.098-6.796,15.538-12.189,27.934-12.189c12.461,0,21.735,5.192,28.104,12.021c6.491,6.959,10.904,16.634,9.988,29.797
					C207.153,228.992,222.313,215.556,232.618,197.573z M73.307,57.224c-10.009,0.881-16.59,9.946-15.745,19.639
					c0.63,7.22,5.607,11.751,10.835,14.391c6.729-8.62,14.165-16.535,23.194-22.855C88.538,61.767,82.865,56.382,73.307,57.224z
					 M242.776,73.476c-0.693-8.323-7.485-15.286-16.253-15.914c-9.751-0.698-14.639,4.878-17.776,11.174
					c9.037,6.256,16.327,14.259,23.025,22.855C238.582,89.015,243.448,81.546,242.776,73.476z M46.05,104.627
					c-8.606,0.757-15.426,7.42-16.083,16.083c-0.89,11.729,7.75,19.89,20.146,19.131c1.231-12.087,4.424-22.212,8.465-31.49
					C54.887,106.397,51.891,104.113,46.05,104.627z M266.14,134.255c9.479-11.591,0.979-30.368-15.067-29.12
					c-4.085,0.318-6.486,2.02-9.48,3.725c3.996,9.266,7.104,19.42,8.295,31.49C257.693,140.891,262.813,138.323,266.14,134.255z
					 M29.797,175.903c-0.79,11.029,8.353,20.021,19.639,18.961c3.859-0.362,6.261-2.09,8.973-3.894
					c-4.186-9.02-7.176-19.235-8.296-31.32C38.036,158.816,30.485,166.293,29.797,175.903z M249.718,160.666
					c-1.147,11.889-4.316,21.756-8.296,30.812c3.559,2.493,6.973,4.52,13.036,3.894c8.714-0.899,16.268-9.135,15.576-18.792
					c-0.692-9.672-8.177-17.125-19.978-16.422C249.818,160.202,249.863,160.529,249.718,160.666z M134.594,203.329
					c-4.006,1.993-7.028,4.593-9.65,7.449c-5.056,5.509-9.698,13.841-8.803,25.057c0.811,10.171,5.001,17.472,11.174,23.025
					c6.323,5.688,15.072,9.386,25.564,8.634c8.73-0.625,15.965-4.635,21.163-9.819c5.206-5.192,9.187-12.507,9.819-21.332
					c0.896-12.501-4.488-21.985-10.836-27.765c-5.851-5.329-14.595-9.444-24.548-8.804
					C143.28,200.108,138.532,201.37,134.594,203.329z M68.228,208.408c-1.604,1.132-3.353,1.657-4.74,2.709
					c-3.632,2.753-6.434,7.793-6.434,13.714c0,11.019,9.715,18.434,19.639,17.606c7.205-0.6,11.908-5.36,14.391-11.004
					C82.341,224.882,74.708,217.223,68.228,208.408z M224.831,242.946c8.918-0.066,16.953-7.296,17.606-16.423
					c0.576-8.04-4.528-15.229-11.004-17.607c-6.279,8.395-14.453,16.359-23.025,23.025
					C211.235,237.94,216.678,243.006,224.831,242.946z M108.521,241.422c-2.483,3.187-4.365,7.469-3.894,12.867
					c1.078,12.358,15.701,20.32,27.257,12.867c-9.174-5.048-15.726-12.717-18.792-23.872
					C111.347,242.886,110.027,242.061,108.521,241.422z M195.372,252.088c-0.035-4.895-2.521-6.959-4.232-10.327
					c-1.197,0.158-2.973,1.202-4.401,1.693c-2.861,11.247-9.81,18.407-18.454,23.871
					C180.754,274.454,195.471,265.377,195.372,252.088z"/>
				<path fill-rule="evenodd" clip-rule="evenodd" fill="#594A42" d="M150.678,58.409c1.762,4.389,3.384,8.917,3.216,15.237
					c0.446,0.102,0.832-1.309,1.354-1.693c7.597-0.729,15.293,0.704,14.222,8.634c-5.449-2.179-13.282-2.896-13.036,4.402
					c0.08,2.381,3.29,3.484,5.079,4.063c4.92,1.594,14.046,2.31,17.776-1.016c1.255-1.119,2.125-3.753,4.571-3.047
					c0.634,0.183,1.36,1.403,1.523,2.37c0.994,5.906-0.748,12.357,0,18.285c-0.513,0.214-1.011-0.527-1.354-0.847
					c-3.286-3.051-7.852-5.829-12.697-7.449c0.143,0.763,1.586,1.686,2.031,2.709c4.801,2.197,8.997,4.999,12.021,8.973
					c0,1.806,0,3.612,0,5.417c-0.597,0.338-0.956-0.489-1.354-0.846c-3.169-2.844-7.403-5.581-11.851-7.28
					c-0.719,0.298-0.999,1.033-1.524,1.524c2.541,0.736,4.731,1.703,7.111,3.047c3.069,1.734,6.681,3.052,6.433,7.957
					c-0.361,7.158-2.526,14.556-4.232,22.178c-1.226,5.48-2.1,10.93-3.217,16.591c-0.358,1.82-1.157,3.438-1.354,5.079
					c-0.358,2.986,0.276,6.179,0,8.635c-1.46,1.232-1.303,5.44-2.709,7.279c-0.809-0.602-1.109-1.712-1.354-2.878
					c-1.3,2.481-1.98,5.582-3.725,7.619c-0.524-0.436-0.555-1.365-0.847-2.032c-1.226,2.781-2.466,5.548-4.232,7.788
					c-0.941-0.582-0.863-2.185-1.186-3.386c-1.718,2.063-3.141,4.42-5.417,5.925c-0.261-0.586-0.15-1.543-0.17-2.37
					c-2.285,1.209-3.661,4.233-6.603,3.895c-2.383-0.275-3.474-2.784-5.417-3.895c0.023,0.927-0.12,1.687-0.338,2.37
					c-2.272-1.509-3.635-3.927-5.418-5.925c-0.134,1.221-0.369,2.339-0.846,3.217c-2.339-1.669-3.164-4.851-4.402-7.619
					c-0.498,0.462-0.396,1.523-0.847,2.032c-1.693-2.031-2.523-4.926-3.555-7.619c-0.774,0.693-0.774,2.16-1.524,2.878
					c-1.173-1.986-1.298-5.021-2.37-7.11c-0.434,0.018-0.272,0.631-0.508,0.847c-1.033-3.082,0.18-5.953-0.169-9.312
					c-0.154-1.483-0.754-3.087-1.016-4.74c-1.676-10.617-3.793-23.163-5.925-33.183c-0.535-2.514-0.632-5.639-0.508-7.788
					c0.207-3.571,3.67-4.864,6.434-6.434c2.15-1.221,4.34-2.239,6.603-3.047c0.227-0.349-0.811-0.876-1.016-1.354
					c-5.257,1.854-9.74,4.482-13.036,8.296c-0.394-1.581-0.057-3.893-0.169-5.756c1.384-2.052,3.121-3.464,5.079-4.91
					c3.01-2.223,6.592-3.463,8.634-6.603c-5.548,1.676-10.217,5.133-13.713,8.295c-0.137-4.078,0.182-8.394,0-12.528
					c-0.124-2.813-0.76-8.697,2.201-8.634c1.532,0.033,2.923,2.332,4.91,3.725c3.687,2.585,9.509,2.152,14.898,1.016
					c3.045-0.642,6.888-0.542,7.449-3.386c0.491-2.489-1.059-5.815-2.032-6.603c-2.261-1.829-7.31-0.511-10.497,0.677
					c-1.233-7.929,6.198-9.249,13.544-8.634c0.785,0.513,0.997,1.599,1.693,2.201C147.133,67.28,148.757,62.696,150.678,58.409z
					 M157.618,95.824c3.65,0.402,7.232,1.358,9.989,2.032c0.323-0.466,0.751-0.829,1.016-1.354
					c-4.745-1.406-10.299-2.003-16.084-2.37C153.014,96.191,155.271,95.565,157.618,95.824z M131.546,96.67
					c1.091,2.017,3.599,0.544,6.433,0c3.077-0.591,5.345-0.884,8.296-1.016c0.076-0.5,1.592-1.136,0.847-1.354
					C141.277,94.438,136.059,95.201,131.546,96.67z M146.783,99.548c0.879,0.375,2.322,3.754,3.217,3.725
					c0.941-0.03,2.553-3.635,3.217-3.894c-1.204-1.167-2.054-2.687-3.387-3.725C148.979,97.117,147.594,98.045,146.783,99.548z
					 M127.822,102.427c0.049,0.815,2.708,2.387,2.878,3.047c0.757-1.105,1.667-2.058,2.54-3.047
					c-0.812-1.219-1.612-2.451-2.878-3.217C130.051,100.261,127.781,101.751,127.822,102.427z M169.47,99.21
					c-0.798,1.121-1.893,1.945-2.54,3.217c0.929,0.991,1.773,2.064,2.709,3.047c0.774-1.145,1.875-1.963,2.54-3.217
					C171.352,101.165,170.615,99.983,169.47,99.21z M165.745,104.458c-3.728-0.618-7.32-1.371-11.682-1.354
					c-0.293-0.14-1.878,1.568-1.354,1.693c5.279,0.307,10.322,0.851,14.729,2.032C167.436,106.15,166.086,105.361,165.745,104.458z
					 M145.937,103.104c-4.216,0.016-7.661,0.804-11.343,1.354c-0.438,0.719-2.177,1.85-1.693,2.371
					c4.236-1.351,9.659-1.515,14.56-2.201C146.947,104.125,146.602,103.455,145.937,103.104z M164.898,125.282
					c-4.535-0.258-10.08,0.786-11.005,4.063c4.829-1.722,12.191-1.91,17.438-2.201C170.344,125.419,167.259,125.417,164.898,125.282
					z M143.905,155.926c-1.064-1.651,0.398-6.076,0.846-8.465c0.578-3.076,1.208-5.869,1.354-8.804
					c0.136-2.725,0.206-5.868-0.846-7.957c-1.497-2.973-6.97-4.498-11.343-4.74c-2.297-0.127-5.367-0.312-6.095,1.185
					c1.561,1.194,3.452,0.407,5.079,0.508c5.546,0.345,11.716,2.494,12.189,7.788c0.486,5.435-1.196,12.166-2.54,16.761
					c-0.523,1.789-1.34,4.132-0.338,5.248c0.888,0.99,3.762,0.597,5.587,0.677c1.625,0.072,3.821,0.692,4.74-0.338
					C151.749,154.328,145.827,158.905,143.905,155.926z M130.361,132.901c-0.821,0.565-2.652,1.876-2.37,3.725
					c0.447,2.938,10.483,3.441,12.528,1.185c2.111-2.329-0.91-7.277-3.555-6.772C139.533,136.886,130.314,138.915,130.361,132.901z
					 M158.465,131.716c-1.552,1.036-2.433,2.949-2.201,4.571c0.602,4.199,12.861,3.72,13.206,0.169
					c0.247-2.547-2.94-4.166-4.402-4.91C166.995,138.126,156.723,138.123,158.465,131.716z M140.011,167.607
					c5.205,0.167,12.007,0.506,16.93-0.17C152.864,165.192,143.748,164.687,140.011,167.607z M141.704,168.792
					c1.55,3.844,12.725,3.898,13.714-0.508C150.906,168.513,146.173,168.521,141.704,168.792z"/>
				<path fill-rule="evenodd" clip-rule="evenodd" fill="#594A42" d="M116.479,126.975c2.213,11.669,4.735,23.03,5.587,36.061
					c-2.036-0.708-7.358-0.631-7.957-2.878c-0.45-1.688,1.448-3.591,2.032-5.418c0.522-1.636,1.427-4.857,0.846-6.603
					c-0.295-0.886-1.931-1.324-2.708-2.201C109.356,140.385,112.852,130.317,116.479,126.975z"/>
				<path fill-rule="evenodd" clip-rule="evenodd" fill="#594A42" d="M183.521,128.499c5.48,3.939,7.321,20.325-2.709,20.654
					c-0.573,4.528,2.136,7.229,2.709,11.174c-1.438,1.496-3.92,1.95-6.434,2.37C178.203,150.27,181.226,139.747,183.521,128.499z"/>
				<path fill-rule="evenodd" clip-rule="evenodd" fill="#594A42" d="M147.291,201.298c10.369-0.852,18.86,3.253,24.38,8.127
					c5.487,4.846,9.792,12.094,10.665,21.67c0.954,10.459-3.161,18.433-8.126,24.041c-5.241,5.92-11.938,9.897-21.501,10.835
					c-9.692,0.949-18.467-2.947-24.21-7.957c-5.911-5.156-9.94-12.054-10.835-21.501c-1.036-10.929,3.07-18.622,7.957-24.21
					C130.332,206.916,137.663,202.089,147.291,201.298z"/>
			</g>
		</g>
	</g>
	<path display="inline" fill-rule="evenodd" clip-rule="evenodd" fill="#594A42" d="M310.667,90.208
		c19.151-1.574,34.836,6.012,45.03,15.02c10.133,8.956,18.084,22.352,19.696,40.05c1.765,19.33-5.836,34.067-15.007,44.433
		c-9.682,10.941-22.051,18.292-39.713,20.024c-17.899,1.755-34.107-5.447-44.713-14.706c-10.918-9.529-18.36-22.276-20.014-39.737
		c-1.912-20.199,5.671-34.417,14.696-44.745C279.345,100.592,292.887,91.67,310.667,90.208z"/>
</g>
<g id="Layer_1_copy">
	<g>
		<path fill-rule="evenodd" clip-rule="evenodd" fill="#594A42" d="M255.982,44.018C231.852,19.888,199.676,2.247,153.894,0
			c-2.652,0-5.304,0-7.957,0C100.558,1.887,69.29,19.958,44.356,43.341c-5.887,5.521-11.532,12.501-16.591,19.639
			C12.634,84.329,1.964,109.862,0,144.244c0,3.837,0,7.675,0,11.512c2.604,44.814,20.278,76.314,43.849,100.396
			c11.685,11.938,26.053,22.096,42.495,29.627c16.52,7.567,35.489,13.375,57.9,14.222c3.837,0,7.675,0,11.512,0
			c22.483-0.941,41.544-6.679,58.239-14.222c16.023-7.237,31.226-18.341,42.495-30.135c23.414-24.505,41.523-55.878,43.51-101.58
			c0-2.652,0-5.306,0-7.958C297.749,100.328,280.112,68.148,255.982,44.018z M289.842,179.628
			c-4.123,19.692-11.95,35.927-21.332,50.112c-13.935,21.072-33.609,38.307-57.562,49.605
			c-16.251,7.666-35.912,12.859-57.731,13.544c-22.928,0.719-43.318-4.506-59.763-11.682c-16.779-7.322-31.014-16.966-42.833-28.612
			c-23.599-23.254-41.956-54.275-43.51-99.21c-0.797-23.035,4.55-43.702,11.682-59.763c3.836-8.64,7.892-16.299,12.528-23.194
			C45.167,49.838,64.685,31.84,88.883,20.824c16.05-7.307,34.891-13.543,57.731-13.544c0.113,0,0.227,0.005,0.339,0
			c22.338-1.063,44.234,4.743,59.763,11.682c16.93,7.564,30.771,16.963,42.833,28.612c12.255,11.836,22.312,25.511,29.797,41.648
			c7.622,16.435,12.478,35.346,13.544,57.731C293.433,158.35,291.911,169.745,289.842,179.628z"/>
		<path fill-rule="evenodd" clip-rule="evenodd" fill="#594A42" d="M261.738,151.576c0-0.546,0-1.09,0-1.635v0
			c0-0.545,0-1.089,0-1.634c10.096-4.114,18.06-12.441,17.945-25.733c-0.076-8.918-4.15-15.663-9.312-20.146
			c-5.47-4.752-12.788-7.713-22.348-6.434c-0.848-0.958-1.386-2.226-2.031-3.386c3.92-4.992,6.847-10.784,6.265-19.47
			c-1.191-17.764-21.804-32.342-40.802-21.501c-1.321,0.753-2.492,2.145-3.894,2.54c-0.927-0.767-2.377-1.01-3.048-2.032
			c1.741-16.272-7.571-27.686-19.808-30.812c-16.179-4.135-28.02,5.778-32.676,16.93c-1.241,0-2.482,0-3.724,0
			c-1.845-4.976-5.015-9.462-9.481-12.697c-4.277-3.099-10.408-5.755-16.93-5.249c-15.81,1.228-28.146,13.387-25.903,31.659
			c-1.005,0.801-2.278,1.334-3.386,2.032c-6.55-6.514-19.936-8.003-28.951-3.725C55.69,54.063,48.831,61.991,48.081,72.46
			c-0.619,8.644,2.417,14.773,6.095,19.978c-1.057,0.917-0.937,2.655-2.201,3.047c-0.891,0.277-2.7-0.306-3.725-0.339
			c-1.368-0.043-2.899,0.049-3.894,0.169C30.494,97,19.338,108.837,20.485,124.605c0.87,11.954,8.453,19.015,17.607,23.363
			c0,0.658,0,1.315,0,1.973v0c0,0.658,0,1.315,0,1.973c-9.154,4.349-16.737,11.41-17.607,23.363
			c-1.147,15.768,10.008,27.605,23.871,29.289c0.995,0.121,2.526,0.213,3.894,0.17c1.024-0.033,2.833-0.616,3.725-0.339
			c1.264,0.393,1.144,2.131,2.201,3.047c-3.678,5.204-6.714,11.334-6.095,19.978c0.75,10.47,7.609,18.397,15.576,22.179
			c9.015,4.278,22.4,2.789,28.951-3.725c1.108,0.697,2.381,1.23,3.386,2.031c-2.244,18.272,10.093,30.432,25.903,31.659
			c6.522,0.507,12.653-2.149,16.93-5.248c4.466-3.235,7.636-7.722,9.481-12.697c1.242,0,2.483,0,3.724,0
			c4.656,11.151,16.497,21.064,32.676,16.93c12.236-3.127,21.549-14.54,19.808-30.812c0.671-1.021,2.121-1.265,3.048-2.032
			c1.401,0.396,2.572,1.786,3.894,2.54c18.998,10.841,39.61-3.737,40.802-21.501c0.582-8.687-2.345-14.479-6.265-19.47
			c0.646-1.16,1.184-2.429,2.031-3.386c9.56,1.279,16.878-1.682,22.348-6.434c5.161-4.484,9.235-11.229,9.312-20.146
			C279.798,164.018,271.834,155.689,261.738,151.576z M251.072,105.135c16.047-1.249,24.546,17.529,15.067,29.12
			c-3.326,4.068-8.446,6.636-16.253,6.095c-1.191-12.07-4.299-22.225-8.295-31.49C244.586,107.155,246.987,105.453,251.072,105.135z
			 M226.523,57.562c8.768,0.628,15.56,7.591,16.253,15.914c0.672,8.07-4.194,15.539-11.004,18.115
			c-6.698-8.596-13.988-16.599-23.025-22.855C211.885,62.44,216.772,56.864,226.523,57.562z M178.781,29.966
			c10.303,0.728,20.107,11.224,15.745,23.363c-0.687,1.911-1.957,3.089-2.879,5.249c-9.317-4.001-19.5-7.137-31.489-8.465
			C159.348,38.173,167.347,29.158,178.781,29.966z M121.727,29.797c9.404-0.589,17.67,6.294,18.623,15.237
			c0.185,1.737-0.139,3.42,0,5.079c-12.073,1.189-22.264,4.26-31.49,8.296c-1.785-3.171-3.358-5.046-3.725-8.804
			C104.133,39.33,111.506,30.437,121.727,29.797z M73.307,57.224c9.558-0.841,15.231,4.543,18.284,11.174
			c-9.029,6.32-16.464,14.235-23.194,22.855c-5.229-2.639-10.206-7.17-10.835-14.391C56.717,67.169,63.298,58.104,73.307,57.224z
			 M29.966,120.711c0.657-8.664,7.477-15.326,16.083-16.083c5.841-0.514,8.837,1.77,12.528,3.725
			c-4.041,9.277-7.234,19.403-8.465,31.49C37.717,140.601,29.076,132.44,29.966,120.711z M46.05,195.255
			c-8.606-0.757-15.426-7.42-16.083-16.083c-0.89-11.729,7.75-19.891,20.146-19.131c1.231,12.087,4.424,22.212,8.465,31.489
			C54.887,193.485,51.891,195.77,46.05,195.255z M73.307,242.659c-10.009-0.881-16.59-9.946-15.745-19.639
			c0.63-7.221,5.607-11.752,10.835-14.391c6.729,8.62,14.165,16.535,23.194,22.855C88.538,238.115,82.865,243.5,73.307,242.659z
			 M140.35,254.849c-0.953,8.943-9.219,15.826-18.623,15.237c-10.221-0.641-17.594-9.533-16.592-19.809
			c0.367-3.757,1.939-5.632,3.725-8.804c9.226,4.036,19.417,7.106,31.49,8.296C140.211,251.429,140.535,253.112,140.35,254.849z
			 M178.781,269.916c-11.435,0.809-19.434-8.207-18.623-20.146c11.989-1.328,22.172-4.464,31.489-8.465
			c0.922,2.159,2.192,3.338,2.879,5.248C198.889,258.692,189.084,269.188,178.781,269.916z M146.275,245.198
			c-25.849-1.221-44.444-11.095-59.424-24.04c-14.706-12.708-25.835-30.044-30.305-52.483c-1.276-6.408-1.843-12.676-1.838-18.733
			c-0.004-6.058,0.562-12.326,1.838-18.734c4.47-22.439,15.599-39.775,30.305-52.483c14.98-12.945,33.576-22.819,59.424-24.041
			c27.262-1.288,48.456,9.233,63.657,21.332c15.606,12.422,27.755,29.875,32.844,51.976c1.709,7.42,2.441,14.795,2.391,21.95
			c0.051,7.155-0.682,14.53-2.391,21.95c-5.089,22.1-17.237,39.554-32.844,51.976C194.731,235.966,173.537,246.486,146.275,245.198z
			 M242.776,226.406c-0.693,8.323-7.485,15.286-16.253,15.914c-9.751,0.698-14.639-4.878-17.776-11.174
			c9.037-6.256,16.327-14.259,23.025-22.855C238.582,210.868,243.448,218.336,242.776,226.406z M251.072,194.747
			c-4.085-0.317-6.486-2.02-9.48-3.725c3.996-9.266,7.104-19.42,8.295-31.49c7.807-0.541,12.927,2.027,16.253,6.096
			C275.618,177.219,267.119,195.996,251.072,194.747z"/>
		<path fill-rule="evenodd" clip-rule="evenodd" fill="#594A42" d="M150.896,58.409c2.268,5.65,4.357,11.481,4.14,19.618
			c0.575,0.131,1.071-1.686,1.744-2.18c9.781-0.939,19.69,0.907,18.311,11.117c-7.016-2.806-17.101-3.729-16.784,5.667
			c0.104,3.066,4.236,4.486,6.54,5.231c6.334,2.052,18.084,2.973,22.887-1.308c1.616-1.44,2.736-4.832,5.886-3.924
			c0.816,0.235,1.752,1.807,1.962,3.052c1.279,7.604-0.964,15.91,0,23.542c-0.66,0.275-1.302-0.679-1.744-1.09
			c-4.231-3.928-10.109-7.505-16.348-9.591c0.184,0.982,2.042,2.17,2.615,3.488c6.181,2.828,11.583,6.436,15.477,11.552
			c0,2.325,0,4.65,0,6.975c-0.769,0.435-1.231-0.63-1.744-1.089c-4.08-3.662-9.532-7.186-15.258-9.374
			c-0.926,0.383-1.286,1.33-1.963,1.962c3.271,0.947,6.092,2.193,9.156,3.923c3.951,2.232,8.602,3.929,8.282,10.245
			c-0.466,9.216-3.253,18.741-5.45,28.555c-1.577,7.055-2.703,14.072-4.142,21.361c-0.461,2.344-1.489,4.426-1.742,6.539
			c-0.462,3.845,0.355,7.955,0,11.117c-1.88,1.587-1.678,7.005-3.488,9.372c-1.041-0.774-1.428-2.204-1.743-3.705
			c-1.674,3.195-2.55,7.188-4.796,9.81c-0.675-0.561-0.714-1.758-1.09-2.616c-1.578,3.581-3.175,7.143-5.449,10.027
			c-1.213-0.749-1.112-2.812-1.526-4.359c-2.212,2.657-4.044,5.69-6.975,7.628c-0.336-0.754-0.194-1.986-0.219-3.051
			c-2.942,1.557-4.714,5.45-8.501,5.014c-3.068-0.354-4.473-3.584-6.975-5.014c0.03,1.193-0.154,2.171-0.436,3.051
			c-2.925-1.942-4.68-5.056-6.976-7.628c-0.172,1.571-0.475,3.012-1.089,4.142c-3.011-2.148-4.073-6.245-5.667-9.81
			c-0.641,0.595-0.509,1.962-1.09,2.616c-2.18-2.615-3.249-6.342-4.577-9.81c-0.997,0.893-0.997,2.781-1.962,3.705
			c-1.511-2.557-1.671-6.465-3.052-9.154c-0.559,0.022-0.35,0.812-0.654,1.09c-1.33-3.968,0.231-7.664-0.218-11.988
			c-0.198-1.91-0.971-3.975-1.308-6.104c-2.158-13.669-4.884-29.822-7.629-42.724c-0.689-3.237-0.814-7.26-0.654-10.026
			c0.266-4.598,4.726-6.262,8.283-8.284c2.768-1.572,5.588-2.883,8.501-3.923c0.292-0.449-1.043-1.128-1.308-1.744
			c-6.768,2.387-12.54,5.771-16.784,10.681c-0.507-2.036-0.074-5.012-0.218-7.411c1.782-2.643,4.019-4.46,6.54-6.321
			c3.875-2.862,8.488-4.459,11.117-8.501c-7.143,2.158-13.154,6.609-17.656,10.681c-0.177-5.25,0.234-10.807,0-16.13
			c-0.159-3.623-0.978-11.197,2.834-11.117c1.972,0.042,3.763,3.002,6.321,4.795c4.747,3.328,12.243,2.771,19.182,1.308
			c3.921-0.827,8.869-0.698,9.591-4.36c0.632-3.204-1.363-7.487-2.616-8.501c-2.911-2.355-9.412-0.657-13.515,0.872
			c-1.588-10.208,7.98-11.908,17.438-11.117c1.01,0.661,1.284,2.059,2.18,2.833C146.333,69.831,148.423,63.928,150.896,58.409z
			 M159.832,106.581c4.7,0.518,9.312,1.749,12.861,2.616c0.416-0.6,0.967-1.066,1.308-1.744c-6.109-1.81-13.26-2.58-20.708-3.052
			C153.903,107.055,156.811,106.249,159.832,106.581z M126.264,107.671c1.405,2.597,4.633,0.701,8.283,0
			c3.962-0.761,6.882-1.139,10.681-1.308c0.098-0.645,2.049-1.462,1.09-1.744C138.793,104.796,132.074,105.779,126.264,107.671z
			 M145.882,111.376c1.132,0.483,2.99,4.833,4.142,4.795c1.212-0.039,3.287-4.68,4.142-5.013c-1.55-1.502-2.644-3.459-4.36-4.795
			C148.709,108.247,146.925,109.441,145.882,111.376z M121.469,115.083c0.063,1.049,3.487,3.074,3.706,3.924
			c0.974-1.423,2.146-2.65,3.27-3.924c-1.046-1.57-2.076-3.156-3.706-4.142C124.339,112.294,121.416,114.213,121.469,115.083z
			 M175.091,110.941c-1.027,1.443-2.437,2.504-3.271,4.142c1.196,1.276,2.284,2.658,3.488,3.924
			c0.997-1.475,2.414-2.528,3.271-4.142C177.514,113.458,176.566,111.936,175.091,110.941z M170.296,117.698
			c-4.8-0.795-9.425-1.765-15.041-1.743c-0.377-0.18-2.417,2.019-1.743,2.18c6.797,0.396,13.29,1.096,18.963,2.616
			C172.472,119.876,170.734,118.861,170.296,117.698z M144.792,115.955c-5.429,0.021-9.864,1.035-14.604,1.743
			c-0.563,0.925-2.803,2.382-2.18,3.052c5.454-1.739,12.436-1.95,18.746-2.834C146.092,117.27,145.648,116.407,144.792,115.955z
			 M169.205,144.509c-5.839-0.332-12.978,1.012-14.169,5.231c6.218-2.216,15.697-2.458,22.453-2.833
			C176.217,144.686,172.244,144.682,169.205,144.509z M142.176,183.963c-1.37-2.126,0.513-7.822,1.09-10.898
			c0.744-3.961,1.556-7.557,1.744-11.335c0.175-3.508,0.265-7.556-1.089-10.245c-1.927-3.827-8.974-5.791-14.604-6.103
			c-2.958-0.164-6.91-0.402-7.847,1.526c2.009,1.537,4.444,0.523,6.54,0.654c7.14,0.444,15.084,3.211,15.694,10.027
			c0.626,6.997-1.54,15.664-3.27,21.58c-0.674,2.304-1.725,5.319-0.436,6.757c1.144,1.275,4.843,0.769,7.193,0.871
			c2.092,0.094,4.919,0.892,6.103-0.435C152.275,181.906,144.65,187.8,142.176,183.963z M124.738,154.318
			c-1.057,0.729-3.414,2.415-3.051,4.796c0.576,3.782,13.497,4.431,16.13,1.525c2.717-2.999-1.172-9.369-4.578-8.719
			C136.547,159.449,124.678,162.062,124.738,154.318z M160.922,152.793c-1.998,1.334-3.132,3.797-2.834,5.885
			c0.774,5.406,16.56,4.79,17.003,0.218c0.318-3.279-3.785-5.363-5.668-6.321C171.905,161.047,158.679,161.041,160.922,152.793z
			 M137.163,199.004c6.701,0.215,15.459,0.651,21.798-0.219C153.711,195.895,141.974,195.243,137.163,199.004z M139.342,200.528
			c1.996,4.949,16.383,5.02,17.657-0.653C151.19,200.169,145.097,200.18,139.342,200.528z"/>
		<path fill-rule="evenodd" clip-rule="evenodd" fill="#594A42" d="M106.864,146.689c2.85,15.025,6.097,29.651,7.193,46.429
			c-2.621-0.912-9.474-0.812-10.245-3.705c-0.58-2.175,1.865-4.624,2.616-6.977c0.672-2.105,1.837-6.254,1.089-8.5
			c-0.38-1.142-2.486-1.705-3.487-2.834C97.694,163.955,102.195,150.992,106.864,146.689z"/>
		<path fill-rule="evenodd" clip-rule="evenodd" fill="#594A42" d="M193.183,148.651c7.057,5.072,9.427,26.169-3.487,26.593
			c-0.738,5.83,2.75,9.308,3.487,14.386c-1.852,1.927-5.047,2.511-8.283,3.052C186.336,176.681,190.227,163.133,193.183,148.651z"/>
	</g>
	<path fill-rule="evenodd" clip-rule="evenodd" fill="#594A42" d="M321.479,77.751c23.142-1.901,42.093,7.265,54.411,18.149
		c12.243,10.822,21.852,27.008,23.8,48.394c2.132,23.357-7.052,41.165-18.133,53.689c-11.699,13.222-26.645,22.104-47.987,24.197
		c-21.628,2.119-41.213-6.584-54.027-17.771c-13.192-11.514-22.185-26.917-24.184-48.016c-2.309-24.407,6.854-41.587,17.759-54.067
		C283.632,90.298,299.995,79.519,321.479,77.751z"/>
</g>
</svg>
