<?xml version="1.0" encoding="utf-8"?>
<!-- Generator: Adobe Illustrator 15.1.0, SVG Export Plug-In . SVG Version: 6.00 Build 0)  -->
<!DOCTYPE svg PUBLIC "-//W3C//DTD SVG 1.1//EN" "http://www.w3.org/Graphics/SVG/1.1/DTD/svg11.dtd">
<svg version="1.1" id="Layer_1" xmlns="http://www.w3.org/2000/svg" xmlns:xlink="http://www.w3.org/1999/xlink" x="0px" y="0px"
	 width="320.125px" height="320px" viewBox="-144.125 206.588 320.125 320" enable-background="new -144.125 206.588 320.125 320"
	 xml:space="preserve">
<g>
	
		<image overflow="visible" opacity="0.75" enable-background="new    " width="335" height="267" xlink:href="BF524B4F.png"  transform="matrix(1 0 0 1 -19 -177.8237)">
	</image>
	<g>
		<g>
			<circle fill="none" stroke="#585858" stroke-width="20" stroke-miterlimit="10" cx="89.63" cy="-69.979" r="89.706"/>
			<path fill="#585858" d="M291.193,62.202c-3.293,4.982-10.004,6.354-14.988,3.059L165.787-7.735
				c-4.984-3.294-6.354-10.007-3.059-14.989l0.201-0.305c3.295-4.982,10.006-6.354,14.989-3.059l110.418,72.994
				c4.983,3.295,6.354,10.006,3.06,14.99L291.193,62.202z"/>
		</g>
	</g>
</g>
<line fill="none" stroke="#585858" stroke-width="16" stroke-miterlimit="10" x1="137" y1="364.176" x2="165" y2="364.176"/>
<ellipse fill="none" stroke="#585858" stroke-width="16" stroke-miterlimit="10" cx="-54.573" cy="365.383" rx="53.309" ry="49.266"/>
<ellipse fill="none" stroke="#585858" stroke-width="16" stroke-miterlimit="10" cx="84.427" cy="365.383" rx="53.309" ry="49.266"/>
<path fill="#585858" stroke="#585858" stroke-miterlimit="10" d="M15.003,355.758c10.309,0,19.046,7.305,22.101,17.418
	c0.753-2.494,1.167-5.152,1.167-7.922c0-13.996-10.417-25.342-23.268-25.342c-12.85,0-23.268,11.346-23.268,25.342
	c0,2.77,0.413,5.428,1.167,7.922C-4.043,363.063,4.694,355.758,15.003,355.758z"/>
<line fill="none" stroke="#585858" stroke-width="16" stroke-miterlimit="10" x1="-134" y1="364.176" x2="-106" y2="364.176"/>
</svg>
