<?xml version="1.0" encoding="utf-8"?>
<!-- Generator: Adobe Illustrator 15.1.0, SVG Export Plug-In . SVG Version: 6.00 Build 0)  -->
<!DOCTYPE svg PUBLIC "-//W3C//DTD SVG 1.1//EN" "http://www.w3.org/Graphics/SVG/1.1/DTD/svg11.dtd">
<svg version="1.1" id="Layer_1" xmlns="http://www.w3.org/2000/svg" xmlns:xlink="http://www.w3.org/1999/xlink" x="0px" y="0px"
	 width="287.932px" height="286px" viewBox="0 0 287.932 286" enable-background="new 0 0 287.932 286" xml:space="preserve">
<rect x="-702.364" y="-19.208" width="194" height="153"/>
<rect x="-702.152" y="247.793" width="193.788" height="28"/>
<rect x="-605.486" y="16.792" width="97.122" height="147.459"/>
<ellipse transform="matrix(1 0.006 -0.006 1 0.9236 3.6433)" cx="-605.486" cy="155.429" rx="125.878" ry="120.364"/>
<rect x="-320.682" y="91.619" transform="matrix(-0.5289 0.8487 -0.8487 -0.5289 -175.9524 321.4091)" width="287" height="40.5"/>
<polygon points="-253.08,233.105 -235.795,243.877 -252.759,251.844 -269.723,259.811 -270.044,241.072 -270.366,222.332 "/>
<line fill="none" stroke="#000000" stroke-width="6" stroke-miterlimit="10" x1="-352.054" y1="249.379" x2="-287.554" y2="249.379"/>
<line fill="none" stroke="#000000" stroke-width="6" stroke-miterlimit="10" x1="-210.554" y1="249.379" x2="-84.099" y2="249.379"/>
<line fill="none" stroke="#000000" stroke-width="6" stroke-miterlimit="10" x1="-352.054" y1="272.379" x2="-84.099" y2="272.379"/>
<line fill="none" stroke="#000000" stroke-width="6" stroke-miterlimit="10" x1="-352.054" y1="226.379" x2="-287.554" y2="226.379"/>
<line fill="none" stroke="#000000" stroke-width="6" stroke-miterlimit="10" x1="-210.554" y1="226.379" x2="-85.068" y2="226.379"/>
<rect x="14" y="50.386" fill="#585858" width="117.247" height="181.17"/>
<polygon fill="#585858" points="179.5,141.54 179.5,232.469 113.221,187.004 46.941,141.54 113.221,96.075 179.5,50.612 "/>
<g>
	<path fill="#6A95AD" d="M-209.577-188.418l-11.073-11.073c-1.455-1.456-3.816-1.456-5.272,0l-26.891,26.891
		c-1.456,1.456-1.456,3.817,0,5.273l2.636,2.636l4.746-4.746l-2.637-2.636l22.673-22.673l11.073,11.073L-236.996-161l-2.108-2.109
		l-4.746,4.745l2.109,2.109c1.456,1.456,3.817,1.456,5.272,0l26.892-26.891C-208.121-184.602-208.121-186.962-209.577-188.418z"/>
	<path fill="#6A95AD" d="M-245.959-157.309l-4.746,4.745l2.637,2.637l-22.673,22.672l-11.073-11.073L-259.141-161l2.108,2.109
		l4.746-4.745l-2.109-2.109c-1.456-1.457-3.817-1.457-5.272,0l-26.892,26.891c-1.456,1.457-1.456,3.816,0,5.273l11.073,11.073
		c1.455,1.456,3.816,1.456,5.272,0l26.891-26.891c1.456-1.457,1.456-3.817,0-5.273L-245.959-157.309z"/>
	<path fill="#6A95AD" d="M-256.004-153.599l0.309,0.308c0.851,0.851,2.23,0.851,3.082,0l12.326-12.326
		c0.852-0.852,0.852-2.231,0-3.082l-0.309-0.309c-0.851-0.85-2.23-0.85-3.082,0l-12.326,12.327
		C-256.855-155.83-256.855-154.45-256.004-153.599z"/>
</g>
<path fill="none" stroke="#585858" stroke-width="12" stroke-miterlimit="10" d="M199.083,183.67
	c24.476-24.476,23.233-65.329-2.777-91.34"/>
<path fill="none" stroke="#343B42" stroke-width="12" stroke-miterlimit="10" d="M218.068,202.655
	c33.327-33.327,30.757-89.835-5.748-126.34"/>
<path fill="none" stroke="#000000" stroke-width="12" stroke-miterlimit="10" d="M235.609,220.196
	c42.425-42.425,39.37-114.14-6.83-160.34"/>
<line fill="none" stroke="#000000" stroke-width="4" stroke-miterlimit="10" x1="38.932" y1="-234" x2="38.932" y2="-132"/>
<line fill="none" stroke="#000000" stroke-width="4" stroke-miterlimit="10" x1="138.932" y1="-133" x2="36.932" y2="-133"/>
<line fill="none" stroke="#000000" stroke-width="4" stroke-miterlimit="10" x1="138.932" y1="-233" x2="36.932" y2="-233"/>
<line fill="none" stroke="#000000" stroke-width="4" stroke-miterlimit="10" x1="136.932" y1="-233" x2="136.932" y2="-131"/>
<circle cx="87.599" cy="-183.333" r="33"/>
<path fill="#FFFFFF" d="M116.6-183.333c0,16.017-12.982,29-29.002,29c-16.017,0-28.999-12.984-28.999-29s12.982-29,28.999-29
	C103.617-212.333,116.6-199.349,116.6-183.333z"/>
<polygon points="106.32,-183.893 91.842,-175.384 77.363,-166.875 77.291,-183.768 77.217,-200.659 91.769,-192.276 "/>
<path d="M-506.027,31.587"/>
<path d="M-507.196,8.322c-50.717,0-91.831,34.945-91.831,78.053s41.114,78.053,91.831,78.053c50.718,0,91.832-34.945,91.832-78.053
	C-415.364,16.767-427.803,8.322-507.196,8.322z M-440.532,100.18l-0.007,0.014c-1.307,4.072-3.188,7.955-5.552,11.602l-0.036,0.074
	l-0.053,0.065c-1.952,2.99-4.237,5.812-6.813,8.442l-0.087,0.108l-0.09,0.075c-2.846,2.881-6.036,5.528-9.533,7.892l-0.036,0.029
	l-0.012,0.004c-11.731,7.913-26.815,12.677-43.277,12.677c-37.369,0-67.663-24.529-67.663-54.787s30.294-54.788,67.663-54.788
	c24.504,0,40.546-1.733,50.831,1.772h0l0,0c8.611,2.935,13.184,9.549,15.299,23.932l0,0.001l0,0.004
	c0.466,3.172,0.815,6.715,1.06,10.686l0,0.005v0.007c0.328,5.332,0.472,11.423,0.472,18.381c0,4.766-0.754,9.388-2.167,13.796
	L-440.532,100.18z"/>
<path fill="#585858" stroke="#585858" stroke-width="4" stroke-miterlimit="10" d="M-597.566,647.662
	c19.73-0.653,39.439-0.967,59.096,0h158.146c-2.649-4.907-4.657-9.898-3.767-15.775c5.226-34.508-32.376-39.869-57.045-47.828
	c0.184,0.027,0.4,0.024,0.617-0.008c0.552-0.084,1.096-0.379,1.041-0.994c-0.023-0.266-3.189-1.33-3.578-1.5
	c-2.333-1.021-4.629-2.123-6.913-3.25c-3.522-1.739-8.312-3.738-12.535-3.66c-0.626,0.099-1.261,0.152-1.894,0.188
	c2.92-1.777,5.92-0.777,8.92,0.223c8,3,16,5,23,8c3,2,7,3,11,5c4,1,9,0,10-5c0-2,0-3-1-5c-5-6-8-12-11-19
	c-1.824-7.295-2.833-15.404-8.961-18.924c0.096,0.55-1.01,0.838-1.911-0.902c0.71,0.064,1.181,0.222,1.483,0.405
	c6.445,1.787,14.74,4.333,21.085,2.309c4.237-1.353,2.524-9.331,2.164-12.788c-0.556-5.341-1.796-10.598-3.517-15.678
	c-3.416-10.09-9.589-18.035-15.662-26.631c-9.497-13.439-15.588-29.16-22.718-43.922c-13.095-27.107-33.082-59.324-67.297-58.906
	c-21.723,0.266-39.613,13.768-55.191,27.723c-3.72,3.332-6.934,7.609-9.42,11.93c-2.597,4.514-5.562,8.866-7.685,13.623
	c-4.264,9.555-6.032,19.896-8.308,30.039c-1.144,5.094-2.259,10.432-4.261,15.273c-0.923,2.231-2.481,4.135-3.383,6.367
	c-0.945,2.338-1.232,5.002-1.831,7.455c-2.214,9.088-4.312,21.281-12.438,26.776c-7.92,5.354-11.856,11.582-8.132,21.085
	c0.844,2.153,1.93,4.207,3.098,6.199c0.998,1.703,2.879,3.668,3.125,5.645c0.623,5.004-6.223,5.426-9.428,6.783
	c-4.747,2.008-8.145,5.625-11.636,9.367c-3.423,3.668-7.028,6.949-10.66,10.379c-3.481,3.287-4.964,7.199-5.805,11.818
	c-0.835,4.588-2.565,8.613-5.047,12.561c-8.711,13.855-22.225,24.725-26.987,40.619H-597.566z"/>
<path fill="#585858" stroke="#585858" stroke-width="4" stroke-miterlimit="10" d="M-462.503,574.646
	c0.604-0.096,1.201-0.234,1.778-0.447c-1.253-0.049-2.482,0.264-3.672,0.635C-463.783,574.715-463.149,574.658-462.503,574.646z"/>
<rect x="-196.068" y="408" fill="#585858" stroke="#585858" stroke-width="4" stroke-miterlimit="10" width="2" height="1"/>
<rect x="280.932" y="413" fill="#585858" stroke="#585858" stroke-width="4" stroke-miterlimit="10" width="145" height="215"/>
<g>
	<g>
		<g enable-background="new    ">
			<g enable-background="new    ">
				<defs>
					<path id="SVGID_1_" enable-background="new    " d="M64.399,349.883l-23.741,15.934c-0.375-1.583-1.881-2.704-3.348-2.498
						l23.741-15.934C62.518,347.179,64.024,348.3,64.399,349.883z"/>
				</defs>
				<clipPath id="SVGID_2_">
					<use xlink:href="#SVGID_1_"  overflow="visible"/>
				</clipPath>
				<g clip-path="url(#SVGID_2_)" enable-background="new    ">
					<path fill="#2E2E2E" d="M64.399,349.883l-23.741,15.934c-0.375-1.583-1.881-2.704-3.348-2.498l23.741-15.934
						C62.518,347.179,64.024,348.3,64.399,349.883"/>
				</g>
			</g>
			<g>
				<polygon fill="#2D2D2D" points="127.788,617.546 104.047,633.479 40.658,365.816 64.399,349.883 				"/>
			</g>
			<g enable-background="new    ">
				<defs>
					<path id="SVGID_3_" enable-background="new    " d="M126.782,620.412c-7.913,5.312-15.827,10.623-23.74,15.935
						c0.852-0.572,1.284-1.687,1.005-2.867l23.741-15.934C128.067,618.726,127.634,619.841,126.782,620.412z"/>
				</defs>
				<clipPath id="SVGID_4_">
					<use xlink:href="#SVGID_3_"  overflow="visible"/>
				</clipPath>
				<g clip-path="url(#SVGID_4_)" enable-background="new    ">
					<path fill="#2E2E2E" d="M126.782,620.412l-23.74,15.935c0.852-0.572,1.284-1.687,1.005-2.867l23.741-15.934
						C128.067,618.726,127.634,619.841,126.782,620.412"/>
				</g>
			</g>
			<g enable-background="new    ">
				<defs>
					<path id="SVGID_5_" enable-background="new    " d="M102.058,636.72c7.914-5.311,15.828-10.622,23.741-15.935
						c0.368-0.051,0.7-0.182,0.985-0.373l-23.741,15.934C102.758,636.537,102.426,636.668,102.058,636.72z"/>
				</defs>
				<clipPath id="SVGID_6_">
					<use xlink:href="#SVGID_5_"  overflow="visible"/>
				</clipPath>
				<g clip-path="url(#SVGID_6_)" enable-background="new    ">
					<path fill="#2E2E2E" d="M126.783,620.412l-23.741,15.935c-0.285,0.19-0.616,0.321-0.984,0.373l23.741-15.935
						C126.166,620.734,126.498,620.604,126.783,620.412"/>
				</g>
			</g>
			<g enable-background="new    ">
				<defs>
					<path id="SVGID_7_" enable-background="new    " d="M129.007,623.732c-7.914,5.312-15.827,10.623-23.741,15.935
						c-0.666,0.446-1.442,0.751-2.304,0.872l23.741-15.934C127.564,624.484,128.341,624.18,129.007,623.732z"/>
				</defs>
				<clipPath id="SVGID_8_">
					<use xlink:href="#SVGID_7_"  overflow="visible"/>
				</clipPath>
				<g clip-path="url(#SVGID_8_)" enable-background="new    ">
					<path fill="#2E2E2E" d="M129.007,623.732l-23.741,15.935c-0.666,0.446-1.442,0.751-2.304,0.872l23.741-15.934
						C127.564,624.484,128.341,624.18,129.007,623.732"/>
				</g>
			</g>
			<g>
				<polygon fill="#2C2C2C" points="61.052,347.385 37.311,363.318 -146.929,389.212 -123.188,373.277 				"/>
			</g>
			<g enable-background="new    ">
				<defs>
					<path id="SVGID_9_" enable-background="new    " d="M-147.919,389.587c7.914-5.312,15.828-10.623,23.741-15.934
						c0.286-0.192,0.62-0.323,0.99-0.376l-23.741,15.935C-147.299,389.264-147.633,389.395-147.919,389.587z"/>
				</defs>
				<clipPath id="SVGID_10_">
					<use xlink:href="#SVGID_9_"  overflow="visible"/>
				</clipPath>
				<g clip-path="url(#SVGID_10_)" enable-background="new    ">
					<path fill="#2E2E2E" d="M-123.188,373.277l-23.741,15.935c-0.37,0.052-0.704,0.183-0.99,0.375l23.741-15.934
						C-123.892,373.461-123.559,373.33-123.188,373.277"/>
				</g>
			</g>
			<g enable-background="new    ">
				<defs>
					<path id="SVGID_11_" enable-background="new    " d="M-148.924,392.461c-0.281-1.186,0.151-2.301,1.004-2.874l23.741-15.934
						c-0.853,0.572-1.284,1.688-1.003,2.873C-132.305,381.307-141.802,387.681-148.924,392.461z"/>
				</defs>
				<clipPath id="SVGID_12_">
					<use xlink:href="#SVGID_11_"  overflow="visible"/>
				</clipPath>
				<g clip-path="url(#SVGID_12_)" enable-background="new    ">
					<path fill="#2E2E2E" d="M-125.183,376.526l-23.741,15.935c-0.281-1.186,0.151-2.302,1.004-2.875l23.741-15.934
						C-125.032,374.226-125.464,375.341-125.183,376.526"/>
				</g>
			</g>
			<g enable-background="new    ">
				<defs>
					<path id="SVGID_13_" enable-background="new    " d="M-150.144,386.267c7.914-5.312,15.827-10.623,23.741-15.935
						c-1.987,1.334-2.991,3.932-2.337,6.694l-23.741,15.935C-153.135,390.197-152.131,387.601-150.144,386.267z"/>
				</defs>
				<clipPath id="SVGID_14_">
					<use xlink:href="#SVGID_13_"  overflow="visible"/>
				</clipPath>
				<g clip-path="url(#SVGID_14_)" enable-background="new    ">
					<path fill="#2E2E2E" d="M-128.74,377.026l-23.741,15.935c-0.654-2.764,0.35-5.36,2.337-6.694l23.741-15.935
						C-128.39,371.666-129.394,374.264-128.74,377.026"/>
				</g>
			</g>
			<g>
				<polygon fill="#2C2C2C" points="125.799,620.785 102.058,636.72 -82.182,662.612 -58.44,646.679 				"/>
			</g>
			<g>
				<polygon fill="#2C2C2C" points="126.703,624.605 102.962,640.539 -81.277,666.433 -57.536,650.499 				"/>
			</g>
			<g>
				<polygon fill="#2D2D2D" points="-61.795,644.189 -85.535,660.124 -148.924,392.461 -125.183,376.526 				"/>
			</g>
			<g>
				<path fill="#565656" d="M61.052,347.384c1.466-0.206,2.973,0.916,3.348,2.499l63.389,267.663
					c0.373,1.575-0.522,3.034-1.989,3.239L-58.44,646.679c-1.474,0.207-2.981-0.914-3.354-2.489l-63.388-267.663
					c-0.375-1.583,0.521-3.042,1.995-3.249L61.052,347.384z"/>
			</g>
			<g enable-background="new    ">
				<defs>
					<path id="SVGID_15_" enable-background="new    " d="M-58.44,646.679l-23.741,15.934c-1.474,0.208-2.981-0.914-3.354-2.488
						l23.74-15.935C-61.422,645.765-59.914,646.886-58.44,646.679z"/>
				</defs>
				<clipPath id="SVGID_16_">
					<use xlink:href="#SVGID_15_"  overflow="visible"/>
				</clipPath>
				<g clip-path="url(#SVGID_16_)" enable-background="new    ">
					<path fill="#2E2E2E" d="M-58.44,646.679l-23.741,15.934c-1.474,0.208-2.981-0.914-3.354-2.488l23.74-15.935
						C-61.422,645.765-59.914,646.886-58.44,646.679"/>
				</g>
			</g>
			<g>
				<polygon fill="#2D2D2D" points="-65.352,644.689 -89.093,660.623 -152.481,392.961 -128.74,377.026 				"/>
			</g>
			<g enable-background="new    ">
				<defs>
					<path id="SVGID_17_" enable-background="new    " d="M-57.536,650.499l-23.741,15.934c-3.437,0.483-6.943-2.126-7.815-5.81
						l23.741-15.934C-64.479,648.372-60.973,650.981-57.536,650.499z"/>
				</defs>
				<clipPath id="SVGID_18_">
					<use xlink:href="#SVGID_17_"  overflow="visible"/>
				</clipPath>
				<g clip-path="url(#SVGID_18_)" enable-background="new    ">
					<path fill="#2E2E2E" d="M-57.536,650.499l-23.741,15.934c-3.437,0.483-6.943-2.126-7.815-5.81l23.741-15.934
						C-64.479,648.372-60.973,650.981-57.536,650.499"/>
				</g>
			</g>
			<g>
				<path fill="#565656" d="M60.146,343.564c3.429-0.482,6.936,2.128,7.81,5.818l63.388,267.663c0.873,3.683-1.212,7.078-4.641,7.56
					l-184.239,25.894c-3.437,0.482-6.943-2.127-7.815-5.81l-63.388-267.663c-0.874-3.69,1.211-7.086,4.647-7.569L60.146,343.564z
					 M127.788,617.546L64.399,349.883c-0.375-1.583-1.882-2.704-3.348-2.498l-184.24,25.893c-1.474,0.207-2.37,1.666-1.995,3.25
					l63.388,267.662c0.373,1.575,1.881,2.696,3.354,2.489l184.24-25.893C127.265,620.58,128.16,619.12,127.788,617.546"/>
			</g>
		</g>
	</g>
</g>
</svg>
