<?xml version="1.0" encoding="utf-8"?>
<!-- Generator: Adobe Illustrator 15.1.0, SVG Export Plug-In . SVG Version: 6.00 Build 0)  -->
<!DOCTYPE svg PUBLIC "-//W3C//DTD SVG 1.1//EN" "http://www.w3.org/Graphics/SVG/1.1/DTD/svg11.dtd">
<svg version="1.1" id="Layer_1" xmlns="http://www.w3.org/2000/svg" xmlns:xlink="http://www.w3.org/1999/xlink" x="0px" y="0px"
	 width="362px" height="362px" viewBox="0 0 362 362" enable-background="new 0 0 362 362" xml:space="preserve">
<rect x="-485.296" y="-305.208" width="194" height="153"/>
<rect x="-485.084" y="-38.207" width="193.788" height="28"/>
<rect x="-388.418" y="-269.208" width="97.122" height="147.459"/>
<ellipse transform="matrix(1 0.006 -0.006 1 -0.7921 2.333)" cx="-388.418" cy="-130.571" rx="125.878" ry="120.364"/>
<rect x="-103.614" y="-194.381" transform="matrix(-0.5289 0.8487 -0.8487 -0.5289 -86.7992 -300.0791)" width="287" height="40.5"/>
<polygon points="-36.012,-52.895 -18.727,-42.123 -35.69,-34.156 -52.654,-26.189 -52.976,-44.928 -53.298,-63.668 "/>
<line fill="none" stroke="#000000" stroke-width="6" stroke-miterlimit="10" x1="-134.985" y1="-36.621" x2="-70.485" y2="-36.621"/>
<line fill="none" stroke="#000000" stroke-width="6" stroke-miterlimit="10" x1="6.515" y1="-36.621" x2="132.97" y2="-36.621"/>
<line fill="none" stroke="#000000" stroke-width="6" stroke-miterlimit="10" x1="-134.985" y1="-13.621" x2="132.97" y2="-13.621"/>
<line fill="none" stroke="#000000" stroke-width="6" stroke-miterlimit="10" x1="-134.985" y1="-59.621" x2="-70.485" y2="-59.621"/>
<line fill="none" stroke="#000000" stroke-width="6" stroke-miterlimit="10" x1="6.515" y1="-59.621" x2="132" y2="-59.621"/>
<rect x="216.068" y="-254.614" width="117.247" height="181.17"/>
<polygon points="381.568,-163.46 381.568,-72.531 315.289,-117.996 249.01,-163.46 315.289,-208.925 381.568,-254.388 "/>
<g>
	<path fill="#6A95AD" d="M7.491-474.418l-11.073-11.073c-1.455-1.456-3.816-1.456-5.272,0L-35.745-458.6
		c-1.456,1.456-1.456,3.817,0,5.273l2.636,2.636l4.746-4.746L-31-458.073l22.673-22.673l11.073,11.073L-19.928-447l-2.108-2.109
		l-4.746,4.745l2.109,2.109c1.456,1.456,3.817,1.456,5.272,0l26.892-26.891C8.947-470.602,8.947-472.962,7.491-474.418z"/>
	<path fill="#6A95AD" d="M-28.891-443.309l-4.746,4.745l2.637,2.637l-22.673,22.672l-11.073-11.073L-42.072-447l2.108,2.109
		l4.746-4.745l-2.109-2.109c-1.456-1.457-3.817-1.457-5.272,0l-26.892,26.891c-1.456,1.457-1.456,3.816,0,5.273l11.073,11.073
		c1.455,1.456,3.816,1.456,5.272,0l26.891-26.891c1.456-1.457,1.456-3.817,0-5.273L-28.891-443.309z"/>
	<path fill="#6A95AD" d="M-38.936-439.599l0.309,0.308c0.851,0.851,2.23,0.851,3.082,0l12.326-12.326
		c0.852-0.852,0.852-2.231,0-3.082l-0.309-0.309c-0.851-0.85-2.23-0.85-3.082,0l-12.326,12.327
		C-39.787-441.83-39.787-440.45-38.936-439.599z"/>
</g>
<path fill="none" stroke="#000000" stroke-width="12" stroke-miterlimit="10" d="M402.151-121.33
	c24.476-24.476,23.233-65.329-2.777-91.34"/>
<path fill="none" stroke="#000000" stroke-width="12" stroke-miterlimit="10" d="M421.137-102.345
	c33.327-33.327,30.757-89.835-5.748-126.34"/>
<path fill="none" stroke="#000000" stroke-width="12" stroke-miterlimit="10" d="M438.678-84.804
	c42.425-42.425,39.37-114.14-6.83-160.34"/>
<circle stroke="#585858" stroke-miterlimit="10" cx="431.123" cy="-503.055" r="46.207"/>
<path fill="#FFFFFF" stroke="#585858" stroke-miterlimit="10" d="M471.73-503.055c0,22.427-18.178,40.607-40.608,40.607
	c-22.428,0-40.605-18.18-40.605-40.607c0-22.426,18.178-40.607,40.605-40.607C453.553-543.662,471.73-525.481,471.73-503.055z"/>
<polygon fill="#585858" stroke="#585858" stroke-miterlimit="10" points="457.337,-503.839 437.064,-491.925 416.79,-480.011 
	416.69,-503.664 416.586,-527.315 436.962,-515.577 "/>
<path d="M-288.959-254.413"/>
<path d="M-290.128-277.678c-50.717,0-91.831,34.945-91.831,78.053s41.114,78.053,91.831,78.053
	c50.718,0,91.832-34.945,91.832-78.053C-198.296-269.233-210.734-277.678-290.128-277.678z M-223.464-185.82l-0.007,0.014
	c-1.307,4.072-3.188,7.955-5.552,11.602l-0.036,0.074l-0.053,0.065c-1.952,2.99-4.237,5.812-6.813,8.442l-0.087,0.108l-0.09,0.075
	c-2.846,2.881-6.036,5.528-9.533,7.892l-0.036,0.029l-0.012,0.004c-11.731,7.913-26.815,12.677-43.277,12.677
	c-37.369,0-67.663-24.529-67.663-54.787s30.294-54.788,67.663-54.788c24.504,0,40.546-1.733,50.831,1.772h0l0,0
	c8.611,2.935,13.184,9.549,15.299,23.932l0,0.001l0,0.004c0.466,3.172,0.815,6.715,1.06,10.686l0,0.005v0.007
	c0.328,5.332,0.472,11.423,0.472,18.381c0,4.766-0.754,9.388-2.167,13.796L-223.464-185.82z"/>
<path fill="#585858" stroke="#585858" stroke-width="4" stroke-miterlimit="10" d="M-428.886,432.309
	c21.513-0.818,43.005-1.213,64.439,0H-192c-2.889-6.151-5.079-12.408-4.107-19.774c5.698-43.256-35.304-49.977-62.203-59.953
	c0.2,0.034,0.437,0.031,0.672-0.011c0.602-0.105,1.195-0.475,1.136-1.247c-0.026-0.332-3.478-1.666-3.902-1.881
	c-2.544-1.28-5.047-2.659-7.538-4.072c-3.841-2.18-9.064-4.686-13.668-4.588c-0.683,0.123-1.375,0.191-2.065,0.234
	c3.184-2.228,6.455-0.975,9.727,0.278c8.724,3.763,17.447,6.269,25.08,10.028c3.271,2.509,7.632,3.761,11.995,6.269
	c4.361,1.253,9.813,0,10.903-6.269c0-2.507,0-3.76-1.09-6.266c-5.452-7.521-8.723-15.043-11.994-23.817
	c-1.99-9.145-3.09-19.311-9.772-23.723c0.104,0.69-1.102,1.05-2.083-1.13c0.774,0.081,1.288,0.275,1.618,0.509
	c7.028,2.237,16.073,5.432,22.991,2.893c4.621-1.696,2.753-11.696,2.36-16.028c-0.606-6.697-1.958-13.286-3.834-19.655
	c-3.726-12.646-10.456-22.605-17.079-33.38c-10.356-16.847-16.998-36.554-24.772-55.06c-14.279-33.978-36.074-74.362-73.382-73.839
	c-23.687,0.334-43.194,17.258-60.182,34.75c-4.057,4.177-7.561,9.538-10.271,14.956c-2.832,5.657-6.065,11.113-8.38,17.075
	c-4.65,11.978-6.578,24.94-9.06,37.654c-1.247,6.387-2.463,13.077-4.647,19.146c-1.006,2.798-2.705,5.185-3.688,7.983
	c-1.031,2.93-1.344,6.269-1.996,9.346c-2.415,11.391-4.702,26.674-13.563,33.563c-8.636,6.712-12.929,14.517-8.868,26.431
	c0.921,2.699,2.105,5.273,3.378,7.771c1.088,2.135,3.14,4.597,3.408,7.074c0.679,6.272-6.785,6.802-10.28,8.504
	c-5.176,2.517-8.881,7.051-12.688,11.742c-3.732,4.597-7.664,8.711-11.624,13.011c-3.795,4.12-5.413,9.023-6.33,14.812
	c-0.912,5.752-2.798,10.798-5.504,15.746c-9.499,17.367-24.234,30.993-29.428,50.917H-428.886z"/>
<path fill="#585858" stroke="#585858" stroke-width="4" stroke-miterlimit="10" d="M-245.435,288.646
	c0.604-0.096,1.201-0.234,1.778-0.447c-1.253-0.049-2.482,0.264-3.672,0.635C-246.715,288.715-246.081,288.658-245.435,288.646z"/>
<rect x="498" y="127" fill="#585858" stroke="#585858" stroke-width="4" stroke-miterlimit="10" width="145" height="215"/>
<g opacity="0.99">
	<g>
		<g enable-background="new    ">
			<g enable-background="new    ">
				<defs>
					<path id="SVGID_1_" enable-background="new    " d="M258.465,24.877l-23.741,15.934c-0.373-1.575-1.872-2.697-3.347-2.49
						l23.741-15.934C256.593,22.18,258.092,23.302,258.465,24.877z"/>
				</defs>
				<clipPath id="SVGID_2_">
					<use xlink:href="#SVGID_1_"  overflow="visible"/>
				</clipPath>
				<g clip-path="url(#SVGID_2_)" enable-background="new    ">
					<path d="M258.465,24.877l-23.741,15.934c-0.373-1.575-1.872-2.697-3.347-2.49l23.741-15.934
						C256.593,22.18,258.092,23.302,258.465,24.877"/>
				</g>
			</g>
			<g>
				<polygon points="321.853,292.54 298.111,308.474 234.724,40.811 258.465,24.877 				"/>
			</g>
			<g enable-background="new    ">
				<defs>
					<path id="SVGID_3_" enable-background="new    " d="M320.854,295.414c-7.914,5.312-15.828,10.622-23.741,15.934
						c0.853-0.572,1.28-1.688,0.999-2.874l23.741-15.934C322.134,293.727,321.706,294.842,320.854,295.414z"/>
				</defs>
				<clipPath id="SVGID_4_">
					<use xlink:href="#SVGID_3_"  overflow="visible"/>
				</clipPath>
				<g clip-path="url(#SVGID_4_)" enable-background="new    ">
					<path d="M320.854,295.414l-23.741,15.934c0.853-0.572,1.28-1.688,0.999-2.874l23.741-15.934
						C322.134,293.727,321.706,294.842,320.854,295.414"/>
				</g>
			</g>
			<g enable-background="new    ">
				<defs>
					<path id="SVGID_5_" enable-background="new    " d="M296.125,311.723c7.914-5.311,15.828-10.622,23.741-15.935
						c0.37-0.052,0.703-0.183,0.988-0.374l-23.741,15.934C296.828,311.539,296.495,311.67,296.125,311.723z"/>
				</defs>
				<clipPath id="SVGID_6_">
					<use xlink:href="#SVGID_5_"  overflow="visible"/>
				</clipPath>
				<g clip-path="url(#SVGID_6_)" enable-background="new    ">
					<path fill="#2E2E2E" d="M320.854,295.414l-23.741,15.935c-0.285,0.191-0.618,0.321-0.987,0.374l23.741-15.935
						C320.235,295.736,320.568,295.605,320.854,295.414"/>
				</g>
			</g>
			<g enable-background="new    ">
				<defs>
					<path id="SVGID_7_" enable-background="new    " d="M323.08,298.733c-7.913,5.312-15.827,10.622-23.74,15.934
						c-0.668,0.448-1.446,0.754-2.311,0.875l23.741-15.934C321.635,299.487,322.413,299.182,323.08,298.733z"/>
				</defs>
				<clipPath id="SVGID_8_">
					<use xlink:href="#SVGID_7_"  overflow="visible"/>
				</clipPath>
				<g clip-path="url(#SVGID_8_)" enable-background="new    ">
					<path d="M323.08,298.733l-23.74,15.934c-0.668,0.448-1.446,0.754-2.311,0.875l23.741-15.934
						C321.635,299.487,322.413,299.182,323.08,298.733"/>
				</g>
			</g>
			<g>
				<polygon points="255.118,22.387 231.377,38.32 47.138,64.214 70.879,48.279 				"/>
			</g>
			<g enable-background="new    ">
				<defs>
					<path id="SVGID_9_" enable-background="new    " d="M46.147,64.589c7.914-5.311,15.827-10.622,23.741-15.934
						c0.287-0.192,0.621-0.323,0.991-0.376L47.138,64.214C46.767,64.266,46.433,64.396,46.147,64.589z"/>
				</defs>
				<clipPath id="SVGID_10_">
					<use xlink:href="#SVGID_9_"  overflow="visible"/>
				</clipPath>
				<g clip-path="url(#SVGID_10_)" enable-background="new    ">
					<path d="M70.879,48.279L47.138,64.214c-0.371,0.052-0.705,0.183-0.991,0.375l23.741-15.934
						C70.174,48.463,70.508,48.332,70.879,48.279"/>
				</g>
			</g>
			<g enable-background="new    ">
				<defs>
					<path id="SVGID_11_" enable-background="new    " d="M46.147,64.589c7.914-5.311,15.827-10.622,23.741-15.934
						c-0.853,0.572-1.285,1.687-1.006,2.865L45.141,67.455C44.862,66.275,45.294,65.162,46.147,64.589z"/>
				</defs>
				<clipPath id="SVGID_12_">
					<use xlink:href="#SVGID_11_"  overflow="visible"/>
				</clipPath>
				<g clip-path="url(#SVGID_12_)" enable-background="new    ">
					<path fill="#2E2E2E" d="M68.882,51.521L45.141,67.455c-0.279-1.18,0.153-2.293,1.006-2.866l23.741-15.934
						C69.035,49.228,68.603,50.342,68.882,51.521"/>
				</g>
			</g>
			<g enable-background="new    ">
				<defs>
					<path id="SVGID_13_" enable-background="new    " d="M43.922,61.269c7.914-5.311,15.828-10.622,23.741-15.934
						c-1.987,1.334-2.99,3.929-2.338,6.686L41.584,67.955C40.932,65.198,41.936,62.603,43.922,61.269z"/>
				</defs>
				<clipPath id="SVGID_14_">
					<use xlink:href="#SVGID_13_"  overflow="visible"/>
				</clipPath>
				<g clip-path="url(#SVGID_14_)" enable-background="new    ">
					<path d="M65.325,52.021L41.584,67.955c-0.653-2.757,0.351-5.353,2.338-6.686l23.741-15.935
						C65.676,46.669,64.673,49.264,65.325,52.021"/>
				</g>
			</g>
			<g>
				<polygon fill="#2C2C2C" points="319.866,295.788 296.125,311.723 111.885,337.615 135.626,321.682 				"/>
			</g>
			<g>
				<polygon points="320.771,299.608 297.029,315.542 112.79,341.436 136.53,325.502 				"/>
			</g>
			<g>
				<polygon fill="#2D2D2D" points="132.271,319.184 108.529,335.118 45.141,67.455 68.882,51.521 				"/>
			</g>
			<g>
				<path fill="#565656" d="M255.119,22.387c1.474-0.207,2.973,0.915,3.346,2.49l63.388,267.663
					c0.375,1.583-0.513,3.041-1.986,3.248l-184.24,25.894c-1.474,0.207-2.98-0.914-3.355-2.498L68.882,51.521
					c-0.373-1.574,0.523-3.033,1.997-3.241L255.119,22.387z"/>
			</g>
			<g enable-background="new    ">
				<defs>
					<path id="SVGID_15_" enable-background="new    " d="M135.626,321.682l-23.741,15.934c-1.474,0.207-2.981-0.914-3.356-2.497
						l23.741-15.935C132.646,320.768,134.152,321.889,135.626,321.682z"/>
				</defs>
				<clipPath id="SVGID_16_">
					<use xlink:href="#SVGID_15_"  overflow="visible"/>
				</clipPath>
				<g clip-path="url(#SVGID_16_)" enable-background="new    ">
					<path fill="#2E2E2E" d="M135.626,321.682l-23.741,15.934c-1.474,0.207-2.981-0.914-3.356-2.497l23.741-15.935
						C132.646,320.768,134.152,321.889,135.626,321.682"/>
				</g>
			</g>
			<g>
				<polygon points="128.713,319.684 104.973,335.617 41.584,67.955 65.325,52.021 				"/>
			</g>
			<g enable-background="new    ">
				<defs>
					<path id="SVGID_17_" enable-background="new    " d="M136.53,325.502l-23.741,15.934c-3.436,0.482-6.943-2.127-7.817-5.818
						l23.741-15.934C129.588,323.375,133.094,325.984,136.53,325.502z"/>
				</defs>
				<clipPath id="SVGID_18_">
					<use xlink:href="#SVGID_17_"  overflow="visible"/>
				</clipPath>
				<g clip-path="url(#SVGID_18_)" enable-background="new    ">
					<path d="M136.53,325.502l-23.741,15.934c-3.436,0.482-6.943-2.127-7.817-5.818l23.741-15.934
						C129.588,323.375,133.094,325.984,136.53,325.502"/>
				</g>
			</g>
			<g>
				<path d="M254.214,18.566c3.437-0.482,6.943,2.127,7.815,5.81l63.388,267.663c0.874,3.69-1.21,7.086-4.646,7.569l-184.24,25.894
					c-3.436,0.482-6.942-2.127-7.817-5.818L65.325,52.021c-0.872-3.683,1.213-7.078,4.649-7.561L254.214,18.566z M321.853,292.54
					L258.465,24.877c-0.373-1.575-1.872-2.697-3.347-2.49L70.879,48.279c-1.474,0.208-2.37,1.667-1.997,3.241l63.388,267.663
					c0.375,1.584,1.882,2.705,3.356,2.498l184.239-25.894C321.34,295.581,322.228,294.123,321.853,292.54"/>
			</g>
		</g>
	</g>
</g>
</svg>
