<?xml version="1.0" encoding="utf-8"?>
<!-- Generator: Adobe Illustrator 15.1.0, SVG Export Plug-In . SVG Version: 6.00 Build 0)  -->
<!DOCTYPE svg PUBLIC "-//W3C//DTD SVG 1.1//EN" "http://www.w3.org/Graphics/SVG/1.1/DTD/svg11.dtd">
<svg version="1.1" id="Layer_1" xmlns="http://www.w3.org/2000/svg" xmlns:xlink="http://www.w3.org/1999/xlink" x="0px" y="0px"
	 width="116.901px" height="107.042px" viewBox="0 0 116.901 107.042" enable-background="new 0 0 116.901 107.042"
	 xml:space="preserve">
<g>
	<path fill="#585858" d="M99.759,26.455L88.686,15.382c-1.455-1.456-3.816-1.456-5.272,0L56.522,42.273
		c-1.456,1.456-1.456,3.817,0,5.273l2.636,2.636l4.746-4.746L61.268,42.8L83.94,20.127L95.014,31.2L72.34,53.873l-2.108-2.109
		l-4.746,4.746l2.109,2.109c1.456,1.455,3.817,1.455,5.272,0l26.892-26.892C101.215,30.271,101.215,27.911,99.759,26.455z"/>
	<path fill="#585858" d="M63.377,57.564l-4.746,4.745l2.637,2.637L38.595,87.619L27.521,76.546l22.674-22.673l2.108,2.109
		l4.746-4.746l-2.109-2.109c-1.456-1.457-3.817-1.457-5.272,0L22.776,76.019c-1.456,1.456-1.456,3.816,0,5.272L33.85,92.364
		c1.455,1.456,3.816,1.456,5.272,0l26.891-26.891c1.456-1.456,1.456-3.817,0-5.273L63.377,57.564z"/>
	<path fill="#585858" d="M53.332,61.274l0.309,0.308c0.851,0.852,2.23,0.852,3.082,0l12.326-12.326c0.852-0.852,0.852-2.231,0-3.082
		l-0.309-0.309c-0.851-0.85-2.23-0.85-3.082,0L53.332,58.192C52.48,59.043,52.48,60.423,53.332,61.274z"/>
</g>
</svg>
